<?xml version="1.0" encoding="UTF-8" standalone="no"?>
<!-- Created with Inkscape (http://www.inkscape.org/) -->

<svg
   width="141.37831mm"
   height="225.35939mm"
   viewBox="0 0 141.37831 225.35939"
   version="1.1"
   id="svg1"
   xml:space="preserve"
   inkscape:version="1.4.2 (f4327f4, 2025-05-13)"
   sodipodi:docname="classic-bike-monotone-naked.svg"
   xmlns:inkscape="http://www.inkscape.org/namespaces/inkscape"
   xmlns:sodipodi="http://sodipodi.sourceforge.net/DTD/sodipodi-0.dtd"
   xmlns="http://www.w3.org/2000/svg"
   xmlns:svg="http://www.w3.org/2000/svg"><sodipodi:namedview
     id="namedview1"
     pagecolor="#ffffff"
     bordercolor="#000000"
     borderopacity="0.25"
     inkscape:showpageshadow="2"
     inkscape:pageopacity="0.0"
     inkscape:pagecheckerboard="0"
     inkscape:deskcolor="#d1d1d1"
     inkscape:document-units="mm"
     inkscape:zoom="0.75811588"
     inkscape:cx="242.04743"
     inkscape:cy="397.69646"
     inkscape:window-width="958"
     inkscape:window-height="1101"
     inkscape:window-x="952"
     inkscape:window-y="0"
     inkscape:window-maximized="0"
     inkscape:current-layer="layer1" /><defs
     id="defs1" /><g
     inkscape:label="Layer 1"
     inkscape:groupmode="layer"
     id="layer1"><path
       id="path1-5"
       style="fill:#000000"
       d="m 121.06969,31.504129 c -0.81801,2.993476 -2.82553,8.562803 -3.46497,9.612634 -0.68716,1.1282 -1.28627,1.73876 -2.74429,2.79677 -3.08284,2.23707 -6.02707,3.1076 -10.49207,3.10225 -2.67344,-0.003 -4.46987,-0.34231 -7.2173,-1.36238 -3.93722,-1.46183 -6.97314,-3.35648 -8.93281,-5.574782 -1.65907,-1.878039 -3.32187,-4.254809 -3.60551,-5.153652 -0.16145,-0.511626 -0.3074,-1.792082 -0.36172,-3.173472 -0.0795,-2.023147 -0.0332,-2.630084 0.36649,-4.803094 0.41577,-2.260259 0.76875,-3.77386 0.88009,-3.77386 0.0235,0 0.84106,0.475938 1.81689,1.05764 5.07916,3.027742 9.88949,4.794784 15.75467,5.787374 4.41286,0.746808 6.47998,0.925997 9.43465,0.817846 3.9102,-0.143126 5.64366,-0.50209 8.1918,-1.696345 m -19.90353,13.074325 0.18894,-1.24366 c 0.10392,-0.684013 0.23414,-1.706815 0.28938,-2.272894 0.0552,-0.566079 0.18198,-1.557527 0.28165,-2.203218 0.10039,-0.650314 0.0402,-1.202559 0.0343,-1.315373 -0.13883,-5.007552 -1.69428,-4.269521 -8.86033,-6.457034 -6.76738,-2.065816 -5.18394,9.144687 -1.23393,12.542214 0.33283,0.28628 4.26702,2.377145 5.82424,2.934575 1.82028,0.74378 2.94603,-0.164083 3.47575,-1.98461 z M 15.595753,224.75826 c -5.057322,-2.53998 -4.330484,-8.98913 -3.123973,-13.679 0.638313,-2.27387 1.465302,-5.70495 1.465302,-6.07937 0,-0.17871 -0.202734,-0.43343 -0.45052,-0.56604 -0.708094,-0.37896 -1.975295,-1.88433 -2.412014,-2.86536 -1.4337611,-3.22072 -0.866097,-7.13176 2.32309,-16.00539 0.952265,-2.64959 3.981825,-10.26342 4.424327,-11.11912 0.152105,-0.29414 0.250284,-0.56107 0.218175,-0.59318 -0.03211,-0.0321 -0.508809,0.067 -1.059335,0.22022 -0.861662,0.23983 -1.149025,0.24802 -2.064967,0.0588 -2.159289,-0.446 -3.948434,-1.66606 -4.862086,-3.31559 -0.4840851,-0.87397 -0.5102791,-1.02345 -0.4939201,-2.81859 0.01155,-1.26719 0.109004,-2.15056 0.293953,-2.66446 0.1521721,-0.42282 0.2607241,-0.78169 0.2412261,-0.79748 -0.0195,-0.0158 -0.5007541,-0.16149 -1.0694571,-0.32378 -1.610043,-0.45943 -3.28154,-1.41816 -4.143025,-2.37634 -1.017952,-1.13221 -1.363768,-2.2899 -1.236905,-4.14079 0.08948,-1.30551 0.0756,-1.37321 -0.355203,-1.73192 -1.361609,-1.13376 -2.05012,-1.84893 -2.59213205,-2.6925 -0.51019,-0.79405 -0.616647,-1.1328 -0.683534,-2.17503 -0.187434,-2.92063 1.36690405,-5.3776 7.19286405,-11.3699 4.0467231,-4.16226 6.5425571,-7.63674 6.5543261,-9.12435 0.0062,-0.77767 0.597096,-1.62678 1.218688,-1.7511 0.356023,-0.0712 0.496464,-0.18315 0.433995,-0.34595 -0.0508,-0.13237 -0.252012,-0.76631 -0.447148,-1.40875 l -0.354792,-1.16807 0.595231,-1.97142 c 0.327377,-1.08429 1.033334,-3.48366 1.568793,-5.33194 3.674763,-12.68446 6.198177,-20.594554 8.054092,-25.246984 0.378105,-0.94784 0.842779,-2.22398 1.03261,-2.83588 0.437227,-1.40934 0.774742,-1.8982 2.854007,-4.13378 1.898017,-2.0407 2.893577,-3.24586 2.777357,-3.36208 -0.126,-0.126 -5.063317,1.41707 -5.855753,1.83011 -2.103001,1.09614 -4.56933,0.26461 -5.170946,-1.74341 -0.450945,-1.50511 0.36961,-2.79541 2.313056,-3.637206 0.961008,-0.416256 1.235566,-0.680004 0.707877,-0.680004 -0.149119,0 -0.926753,-0.627884 -1.728076,-1.395297 -1.110162,-1.063184 -1.527607,-1.363853 -1.753802,-1.263194 -0.163269,0.07266 -0.612527,0.164389 -0.998351,0.20385 -0.960041,0.09819 -1.694814,-0.519399 -2.053015,-1.725595 -0.767498,-2.584445 0.112796,-4.456467 2.452928,-5.216363 l 0.904755,-0.293796 v -1.328138 c 0,-0.756641 0.116803,-1.670935 0.271444,-2.124784 0.338993,-0.994888 1.370565,-2.181666 2.653835,-3.053117 l 0.984882,-0.668822 0.106589,-1.622661 c 0.365741,-5.567886 2.515527,-9.63815 6.148051,-11.640316 1.027166,-0.566151 1.849616,-1.201055 2.76561,-2.134959 1.432534,-1.460545 2.540833,-2.087232 4.245689,-2.400724 0.552844,-0.101658 1.174986,-0.215539 1.382539,-0.253069 0.207553,-0.03753 1.099383,-0.560231 1.981845,-1.161558 0.882461,-0.601327 2.224879,-1.427658 2.98315,-1.83629 1.821096,-0.981388 2.087521,-1.240038 2.787678,-2.706322 0.698619,-1.463065 1.240251,-1.965937 2.985521,-2.771873 1.104028,-0.509821 1.531249,-0.849344 2.929684,-2.328287 2.435063,-2.57525 5.43558,-5.09293 8.530548,-7.15783 3.87326,-2.584161 5.266945,-3.229204 9.219886,-4.267263 1.741298,-0.45727 1.976308,-0.475628 6.233548,-0.486933 l 4.42402,-0.01175 0.19875,-1.379044 C 82.02282,13.709609 84.21192,9.1757999 88.05981,5.4708999 91.92008,1.7540689 96.49908,-0.01026112 102.25842,4.4883853e-5 106.2102,0.00714488 108.2773,0.46832488 111.73681,2.1148509 c 4.2571,2.026136 7.88848,5.603656 9.80948,9.6639781 0.63808,1.348664 1.5214,4.574115 1.81586,6.630618 0.37276,2.603355 0.14552,8.641382 -0.42826,11.379214 -0.10818,0.516198 -0.0891,0.532276 1.67095,1.410018 3.66663,1.828524 6.37803,4.003554 9.83681,7.890885 1.83909,2.066955 4.02788,5.24206 4.95987,7.194905 0.3732,0.781996 0.97066,2.507517 1.32767,3.834491 l 0.64912,2.412681 -0.0156,4.049856 c -0.014,3.620559 -0.0654,4.323877 -0.48537,6.634871 -0.44137,2.428855 -0.46262,2.772407 -0.35179,5.687033 0.11526,3.031357 0.10688,3.145198 -0.36802,4.997695 -0.35968,1.403017 -0.48813,2.321157 -0.49426,3.532853 -0.009,1.839105 0.46118,6.524787 0.89113,8.875217 0.33847,1.85029 0.33799,1.97259 -0.0217,5.58593 -0.50724,5.0956 -1.63957,8.363554 -4.01734,11.594184 -1.12419,1.52743 -2.3146,2.74803 -3.75907,3.8544 l -1.24172,0.95108 -0.0819,1.67378 c -0.1159,2.36892 -0.55397,3.22945 -2.79985,5.49998 -1.2884,1.30253 -1.99782,1.87663 -2.7374,2.21522 -1.73861,0.79596 -2.74607,0.72642 -3.63024,-0.25058 -0.25683,-0.2838 -0.5315,-0.36231 -1.26746,-0.36231 -0.8244,0 -0.92525,0.037 -0.82282,0.30158 0.0642,0.16587 0.34615,1.23219 0.62655,2.3696 0.6322,2.56451 0.84411,6.20206 0.50154,8.60926 -0.19283,1.355 -0.37362,1.8497 -1.47999,4.04985 -1.53485,3.05224 -2.04795,3.8314 -4.45307,6.76219 -2.34316,2.85528 -6.44641,6.93737 -10.70627,10.65104 -1.79395,1.56393 -4.30982,3.85167 -5.59083,5.08386 -3.33332,3.2063 -8.2108,7.68586 -8.88206,8.15744 -0.85904,0.6035 -1.81326,0.67511 -2.59101,0.19444 -0.63011,-0.38943 -0.64222,-0.39016 -1.22915,-0.0741 -1.02415,0.55154 -1.57497,1.32649 -1.56181,2.19731 0.009,0.61905 -0.16257,1.06286 -0.92015,2.37528 -1.10301,1.91083 -1.21942,2.62698 -1.04859,6.45105 0.0593,1.32698 0.0977,3.40379 0.0854,4.61515 -0.0431,4.24702 -1.05055,6.89255 -3.00423,7.88924 -1.19359,0.60893 -3.43331,0.33045 -5.07775,-0.63133 l -0.70313,-0.41124 -0.41705,0.44642 c -1.34947,1.4445 -3.569764,1.31586 -6.355607,-0.36826 -2.826334,-1.70859 -4.057674,-3.22374 -4.203022,-5.17176 -0.127275,-1.70579 -0.465269,-1.49646 -1.655306,1.02518 -1.10455,2.34049 -1.596511,2.85855 -2.715814,2.85985 -0.93691,0.001 -2.34856,-0.64568 -3.332219,-1.5267 l -0.935239,-0.83766 -2.816749,5.53394 c -6.732885,13.2278 -26.487,42.26755 -36.113591,37.13578 z m 2.860279,-13.23131 c 1.407463,-1.56544 4.071566,-5.71128 8.925519,-13.88977 5.768402,-9.71926 11.617444,-21.4807 16.540671,-33.26052 7.670177,-18.35246 10.148043,-24.86917 12.745673,-33.5207 1.257154,-4.18701 2.465973,-8.98581 2.391097,-9.49224 -0.05631,-0.38087 -0.05849,-0.38056 -0.614797,0.0889 -0.471845,0.39823 -0.678003,0.84927 -1.33151,2.91314 -1.07725,3.40212 -5.478856,16.19629 -7.035765,20.4509 -2.446533,6.68571 -6.686414,16.81134 -11.365374,27.14266 -4.453644,9.8338 -10.119416,21.25354 -11.456309,23.09094 -0.78713,1.08182 -0.746925,0.16636 0.131766,-3.00025 1.111901,-4.00706 2.052585,-6.99861 2.952565,-9.38971 0.460415,-1.22324 0.793996,-2.35995 0.741291,-2.52601 -0.10935,-0.34453 -0.545685,-0.55983 -0.807124,-0.39825 -0.546006,0.33745 -2.734771,6.88322 -7.028309,21.01902 -0.549652,1.80964 -1.135217,3.55453 -1.301255,3.87752 -0.791437,1.53958 -2.349461,3.45884 -2.602454,3.20585 -0.187997,-0.188 0.438778,-3.86771 1.077145,-6.32378 0.332582,-1.27958 0.98015,-3.41222 1.439042,-4.73919 0.458891,-1.32698 1.538755,-4.45009 2.399697,-6.94025 0.860942,-2.49016 1.96193,-5.43708 2.446641,-6.5487 1.292165,-2.96343 2.467664,-5.95635 2.993611,-7.62201 0.565082,-1.78959 1.473786,-5.46346 1.469512,-5.94121 -0.0072,-0.7997 -1.891512,3.2764 -4.021297,8.69856 -6.031966,15.35663 -8.106051,21.1578 -9.581056,26.79799 -0.781403,2.98796 -1.300853,7.18118 -0.934925,7.54711 0.200468,0.20047 1.048746,-0.37562 1.825945,-1.24005 z m -0.202486,-28.19352 c 1.741006,-3.77388 2.445984,-5.44454 2.341542,-5.54898 -0.103509,-0.10351 -2.682577,4.68742 -3.194962,5.93503 -0.590357,1.43746 -1.288908,3.79901 -1.054269,3.56411 0.08724,-0.0873 0.945702,-1.86491 1.907689,-3.95016 z m 21.966611,-2.54193 c 4.846632,-9.02692 11.245642,-23.76041 15.587056,-35.88862 4.742535,-13.24879 7.13394,-22.4157 6.223092,-23.85483 -0.162244,-0.25634 -0.172611,-0.22711 -0.789872,2.22687 -2.262487,8.99475 -6.375427,20.72458 -14.955723,42.65275 -1.169246,2.98817 -3.593546,8.64664 -5.46375,12.75273 -0.777082,1.70611 -1.598023,3.50916 -1.824314,4.00678 -0.22629,0.49761 -0.381879,0.90475 -0.345751,0.90475 0.03613,0 0.742295,-1.26019 1.569262,-2.80043 z m 27.071086,-1.07968 c -0.379775,-0.80709 -0.771549,-1.44066 -0.870611,-1.40794 -0.09906,0.0327 -0.293418,0.26044 -0.431903,0.50604 -0.220831,0.39165 -0.220831,0.50477 0,0.92005 0.261332,0.49143 1.44735,1.44928 1.794512,1.44928 0.111258,0 -0.10498,-0.64495 -0.491998,-1.46743 z m -19.59658,-6.3307 c 4.941324,-10.10788 10.140635,-22.85294 13.51673,-33.13351 1.434914,-4.36947 3.492063,-11.66449 3.814245,-13.526 0.39693,-2.29339 0.545289,-4.65303 0.292552,-4.65303 -0.108814,0 -0.197843,0.1481 -0.197843,0.3291 0,0.49177 -1.623144,6.76033 -2.60369,10.05541 -1.447353,4.86377 -4.973595,14.99908 -7.490555,21.52973 -3.174439,8.23659 -7.115448,17.96721 -9.322274,23.01732 -0.05177,0.11848 -0.04678,0.21542 0.0111,0.21542 0.05788,0 0.94876,-1.72549 1.979733,-3.83444 z m -14.661915,-1.04441 c 1.448397,-2.29337 4.320171,-8.47405 5.305399,-11.41836 0.84884,-2.53673 0.74825,-3.59215 -0.207909,-2.18144 -0.950808,1.40282 -4.903806,10.73408 -5.578138,13.16749 -0.531124,1.91662 -0.483711,1.95926 0.480648,0.43231 z m -16.754969,-4.01055 c 1.943042,-0.91921 5.21827,-4.56816 8.726903,-9.7227 1.741074,-2.55782 1.926943,-2.90546 2.569072,-4.80513 0.514727,-1.52277 0.545519,-1.85125 0.111441,-1.18887 -0.480396,0.73307 -5.195809,6.76113 -6.441255,8.23434 -1.343622,1.58934 -3.978559,4.20199 -4.808037,4.76738 -0.680366,0.46374 -1.245308,0.58701 -1.981844,0.43243 -0.962324,-0.20196 -1.381387,-0.0629 -1.636127,0.54295 -0.192839,0.45863 -0.190308,0.63807 0.01597,1.13175 0.134828,0.32269 0.380032,0.68913 0.544898,0.81431 0.503627,0.38239 1.858161,0.28592 2.898982,-0.20646 z m 38.983391,-3.4325 c 4.470317,-10.41017 7.826177,-19.36096 10.53178,-28.09049 1.699267,-5.48263 2.685062,-10.35445 2.423548,-11.97724 l -0.0972,-0.60317 -0.138616,0.60317 c -0.07624,0.33174 -0.396592,1.72838 -0.711897,3.10363 -1.862287,8.12269 -5.747794,19.92583 -11.474472,34.85639 -0.936849,2.44255 -1.703361,4.49117 -1.703361,4.5525 0,0.23952 0.170369,-0.11641 1.170218,-2.44479 z m -26.958143,-0.24448 c 0.271182,-0.49849 0.426283,-0.9698 0.344668,-1.04734 -0.08161,-0.0776 -0.436274,-0.21869 -0.788132,-0.31365 l -0.639742,-0.17266 -0.35118,0.93861 c -0.429372,1.1476 -0.437628,1.396 -0.04959,1.49214 0.70429,0.1745 0.997424,-0.003 1.483981,-0.8971 z m 2.537764,-5.48804 c 0.116848,-0.35412 0.828176,-2.11731 1.580727,-3.9182 0.752551,-1.8009 2.242784,-5.44577 3.311628,-8.09972 1.068844,-2.65394 3.318458,-8.22533 4.999142,-12.38086 1.987707,-4.91464 2.996982,-7.6143 2.887542,-7.72374 -0.187007,-0.18701 -1.863828,-0.44638 -2.305341,-0.35659 -0.178869,0.0364 -0.515911,0.66947 -0.920341,1.72875 -0.350964,0.91924 -1.453497,3.64888 -2.450072,6.06587 -3.124768,7.57848 -9.530363,23.46868 -9.774395,24.2471 -0.09582,0.30564 -0.0183,0.43073 0.401421,0.64778 0.562793,0.29103 1.751571,0.59414 1.940559,0.4948 0.06417,-0.0337 0.212281,-0.35107 0.32913,-0.70519 z m -18.652795,-0.0575 c 0.523918,-0.18264 0.745738,-0.50014 0.349419,-0.50014 -0.651609,0 -3.9651841,-0.58719 -4.8267131,-0.85533 -0.870519,-0.27093 -0.994246,-0.27915 -0.807029,-0.0536 0.969872,1.16862 3.8052191,1.92465 5.2843231,1.40903 z m 60.934594,-2.34711 c 1.53479,-1.92763 1.69673,-2.20269 1.91726,-3.25672 0.29785,-1.4236 0.60199,-1.78969 1.48681,-1.78969 0.84761,0 1.78112,-0.38587 2.02189,-0.83575 0.10241,-0.19136 0.18621,-0.69909 0.18621,-1.1283 0,-1.16288 0.5844,-2.51254 1.81762,-4.19771 0.6066,-0.82891 2.25845,-3.21322 3.67078,-5.29847 2.78565,-4.11291 6.53948,-8.99153 7.92294,-10.29696 l 0.8675,-0.81858 -0.0977,-0.94655 c -0.0969,-0.9393 -0.0919,-0.95217 0.65938,-1.68027 0.41639,-0.40355 0.91035,-0.81876 1.09769,-0.92271 0.30633,-0.16996 0.31794,-0.23934 0.11528,-0.68933 -0.12393,-0.2752 -0.67461,-1.19831 -1.22371,-2.05136 -0.54911,-0.85306 -1.28006,-2.16339 -1.62433,-2.91184 l -0.62595,-1.36083 -0.49091,0.67767 c -0.26999,0.37272 -0.73862,0.88611 -1.04139,1.14088 -0.49653,0.41781 -0.82633,0.54687 -2.25816,0.88374 -0.36763,0.0865 -0.60002,0.49991 -1.58391,2.81771 -0.6342,1.494 -1.50684,3.54977 -1.9392,4.5684 -0.43237,1.01862 -1.22109,2.78856 -1.7527,3.9332 l -0.96658,2.08116 0.28107,1.00173 c 0.27763,0.98945 0.27549,1.01728 -0.17431,2.27083 -0.97908,2.72856 -1.45617,3.37656 -3.47533,4.72028 -0.0255,0.017 -0.53611,1.22495 -1.13463,2.68438 -0.59852,1.45942 -1.42224,3.39023 -1.83048,4.29067 -1.17851,2.59943 -2.39724,5.62018 -3.719788,9.21989 -0.174692,0.47548 -0.04997,0.33688 1.894638,-2.10547 z m -30.732312,-5.21874 c 0.749138,-1.46915 2.909163,-5.81197 4.800056,-9.65072 2.910344,-5.90836 3.531537,-7.30819 4.04753,-9.12096 0.335248,-1.17778 0.578133,-2.17282 0.539745,-2.21121 -0.03839,-0.0384 -0.497612,0.53749 -1.020496,1.27974 -1.193938,1.69483 -3.202664,5.48335 -5.329933,10.05243 -0.904653,1.94307 -2.582508,5.43021 -3.728568,7.74921 -1.146059,2.31899 -2.083744,4.32038 -2.083744,4.44751 0,0.16436 0.204217,0.21585 0.706671,0.17817 l 0.70667,-0.053 z m -22.048563,0.38775 c 1.173396,-1.21457 2.338789,-2.93095 3.910481,-5.75934 1.653646,-2.97586 3.010879,-6.06018 3.293581,-7.48468 0.110968,-0.55915 0.240421,-1.15236 0.287672,-1.31823 0.07341,-0.2577 -0.03622,-0.30158 -0.753422,-0.30158 -1.093928,0 -2.073302,0.69905 -2.858694,2.04046 -0.820019,1.40055 -3.28337,6.64556 -3.70773,7.89457 -0.423726,1.24714 -1.234184,4.7536 -1.234184,5.33971 0,0.57988 0.167806,0.51497 1.062296,-0.41091 z m 12.717409,-13.78133 c 0.0039,-0.11551 -0.101407,-0.1684 -0.233953,-0.11754 -0.327878,0.12582 -0.623111,1.38616 -0.60931,2.60112 l 0.01137,1.00078 0.412428,-1.63718 c 0.226835,-0.90045 0.415596,-1.73168 0.419468,-1.84718 z M 75.79659,134.3617 c 0.0112,-0.2643 -1.45107,-0.81865 -1.80307,-0.68357 -0.31665,0.12151 -1.17257,1.94973 -1.02477,2.18888 0.0546,0.0884 0.26923,0.16419 0.4769,0.16846 0.20767,0.004 0.61023,0.11066 0.89458,0.23641 l 0.51701,0.22864 0.46543,-0.96883 c 0.25599,-0.53286 0.46925,-1.05935 0.47392,-1.16999 z m -43.5182,-1.65143 c 0.709332,-1.47368 1.305484,-2.38784 2.485133,-3.81079 1.250355,-1.50824 1.592454,-2.04407 1.760427,-2.75735 0.434691,-1.84587 1.781076,-5.45147 2.860218,-7.65963 0.885755,-1.81245 1.331256,-2.5086 2.123588,-3.31834 0.623569,-0.63727 1.199054,-1.06398 1.522052,-1.12858 0.494362,-0.0989 0.537929,-0.17974 0.90474,-1.67937 0.533103,-2.17946 1.118337,-4.12276 1.652956,-5.48871 l 0.452397,-1.15588 -0.559669,-0.63743 c -0.534028,-0.60822 -0.990084,-1.54265 -0.900905,-1.8459 0.02298,-0.0781 -0.03917,-0.092 -0.138105,-0.0309 -0.272292,0.16829 -0.797572,1.27364 -3.153292,6.63549 -6.418107,14.60824 -9.437887,21.00805 -10.336997,21.90716 -0.273027,0.27303 -0.703685,0.53802 -0.957018,0.58887 -1.012857,0.20332 -1.322691,0.36255 -1.572921,0.80837 -0.357647,0.63719 -0.11267,0.84154 1.228743,1.02499 0.592919,0.0811 1.154381,0.22378 1.247692,0.31709 0.09331,0.0933 0.232232,0.16966 0.308713,0.16966 0.07648,0 0.558993,-0.87245 1.072248,-1.93876 z m 47.02042,-4.9977 c 3.46521,-8.20523 3.81329,-9.11345 3.55616,-9.27907 -0.34901,-0.22481 -1.52689,-0.53239 -1.75173,-0.45744 -0.17747,0.0591 -1.70154,3.64042 -4.08854,9.60726 -1.40279,3.50661 -1.36215,3.22036 -0.4851,3.41653 0.40717,0.0911 0.86521,0.17388 1.01786,0.18404 0.20283,0.0135 0.67435,-0.92112 1.75135,-3.47132 z m -33.873667,-4.39452 c 0.208994,-0.54501 0.427557,-1.11986 0.485696,-1.27744 0.08917,-0.2417 -0.06835,-0.30515 -1.007182,-0.40569 -0.612089,-0.0656 -1.266709,-0.0704 -1.454712,-0.0107 -0.199506,0.0633 -0.527964,0.51923 -0.788908,1.09503 l -0.447085,0.98654 0.639719,0.12257 c 0.351846,0.0674 0.872371,0.19646 1.156722,0.28677 0.922826,0.29309 1.018311,0.23933 1.41575,-0.79709 z m 71.012487,-0.13903 c 0.23784,-0.16659 0.38301,-0.44782 0.38301,-0.742 0,-0.48698 -1.73841,-4.88205 -2.86076,-7.23261 -1.1083,-2.32113 -3.60611,-5.85617 -5.85174,-8.28172 -1.04693,-1.13082 -1.33573,-1.20746 -2.03261,-0.53948 -0.4066,0.38974 -0.37128,0.45624 1.67604,3.15548 2.10866,2.7801 2.83904,3.87738 3.87611,5.82328 1.06488,1.99808 2.54884,5.44422 2.80514,6.51427 0.27419,1.14475 0.58546,1.57106 1.14711,1.57106 0.26107,0 0.64704,-0.12073 0.8577,-0.26828 z m -65.795665,-9.98561 c 1.164639,-3.03309 2.262371,-5.88687 2.439404,-6.34174 l 0.321878,-0.82704 -0.560903,-0.23306 c -1.369007,-0.56883 -1.173255,-0.82379 -3.169025,4.12748 -2.829314,7.0192 -3.364976,8.3881 -3.305572,8.4475 0.143577,0.14358 1.962393,0.53927 2.053349,0.44671 0.05684,-0.0578 1.056231,-2.58677 2.220869,-5.61985 z m 41.059915,1.2925 c 0.33157,-0.61609 0.80758,-1.68939 1.0578,-2.38511 0.52447,-1.45824 1.31608,-5.52986 1.30593,-6.717 -0.007,-0.78719 -0.0128,-0.79623 -0.24679,-0.36604 -0.13195,0.24259 -0.55945,1.25075 -0.95001,2.24035 -0.39056,0.9896 -1.18349,2.74964 -1.76208,3.91121 -1.01054,2.02877 -1.04413,2.13808 -0.85302,2.77593 0.14659,0.48929 0.14894,0.80742 0.009,1.2091 -0.14552,0.41744 -0.13866,0.607 0.0293,0.8094 0.19575,0.23586 0.25098,0.23083 0.51322,-0.0467 0.16163,-0.17104 0.56515,-0.81506 0.89672,-1.43116 z m -7.00441,0.21542 c 0.19892,-0.54501 0.4163,-1.11583 0.48306,-1.26849 0.0896,-0.20495 -0.0351,-0.35182 -0.47657,-0.56132 -0.93753,-0.44489 -1.35231,-0.18528 -1.90341,1.19134 -0.25419,0.63495 -0.43063,1.18598 -0.3921,1.22451 0.0625,0.0625 1.31322,0.33763 1.75492,0.386 0.0948,0.0104 0.33517,-0.42703 0.5341,-0.97204 z m 35.14132,-2.17534 c 2.06404,-1.39604 4.3677,-4.25662 3.41292,-4.23801 -0.54626,0.0106 -1.03091,0.38477 -2.97911,2.29969 -1.82653,1.79533 -2.2856,2.51957 -1.59707,2.51957 0.16714,0 0.69061,-0.26156 1.16326,-0.58125 z m -32.40115,-3.2283 c 0.47392,-1.1467 0.89289,-2.17067 0.93105,-2.27549 0.0382,-0.10481 -0.3496,0.16201 -0.86168,0.59294 -0.51207,0.43093 -1.30461,1.03597 -1.76119,1.34453 -0.77623,0.52458 -1.21297,1.13144 -1.03344,1.43602 0.0739,0.12538 1.59556,0.96396 1.77742,0.97953 0.0474,0.004 0.47392,-0.93083 0.94784,-2.07753 z m 29.9878,-2.26524 c 1.55333,-1.55713 2.84189,-3.29197 2.84189,-3.82616 0,-0.15292 -0.14883,-0.26678 -0.34871,-0.26678 -0.4149,0 -2.85005,2.29146 -4.23791,3.98784 -0.80522,0.98423 -0.93265,1.22754 -0.75497,1.44163 0.42907,0.51699 0.90405,0.26303 2.4997,-1.33653 z m -36.19184,0.0531 c 1.69674,-0.40886 2.74922,-0.86433 4.29371,-1.8581 3.22054,-2.07222 5.61298,-5.582454 6.41695,-9.415064 0.2711,-1.29238 0.35225,-4.19191 0.15321,-5.47447 -0.42506,-2.73905 -1.78892,-5.40278 -3.91775,-7.65175 -4.63507,-4.896627 -11.52657,-5.951242 -17.30069,-2.64755 -3.541815,2.02648 -6.073863,5.21401 -7.171439,9.02796 -0.522539,1.81576 -0.560913,5.89774 -0.07209,7.66888 0.688722,2.49545 1.894602,4.565014 3.691695,6.335764 2.023099,1.99344 4.166324,3.19475 7.013044,3.93092 2.04522,0.5289 4.90123,0.56346 6.89337,0.0834 z m -5.60086,-1.64429 c -2.91667,-0.55721 -5.009442,-1.61451 -6.825701,-3.44847 -1.437616,-1.45163 -2.508285,-3.169764 -3.1389,-5.037084 -0.404752,-1.19851 -0.452148,-1.59586 -0.447679,-3.75311 0.0048,-2.32067 0.02912,-2.48339 0.637559,-4.26695 0.347907,-1.01985 0.913564,-2.29943 1.257015,-2.84351 2.482223,-3.93227 7.315016,-6.25513 11.927006,-5.73268 5.30692,0.60118 9.82228,4.39617 11.08354,9.3153 0.38223,1.49074 0.30028,4.78551 -0.15975,6.42292 -1.30347,4.639584 -4.72489,8.121504 -8.99073,9.149714 -1.66967,0.40245 -3.83857,0.48115 -5.34236,0.19387 z m 4.23362,-2.51621 c 1.63719,-0.29903 3.06796,-1.08406 4.53453,-2.48797 0.72237,-0.691514 1.57907,-1.697814 1.90377,-2.236204 0.86803,-1.43932 1.39148,-3.42099 1.39148,-5.26782 0,-3.15355 -0.71043,-4.87583 -2.91232,-7.06028 -2.22363,-2.206 -4.02085,-2.97847 -6.91073,-2.97032 -5.76267,0.0162 -10.082962,4.48475 -10.041791,10.38631 0.04296,6.15814 5.807541,10.773754 12.035061,9.636284 z m 34.3744,-1.88123 c 1.74691,-1.987424 2.16125,-2.544094 2.00784,-2.697504 -0.18329,-0.18329 -1.5655,0.74825 -2.50653,1.689274 -1.02703,1.02702 -1.47385,1.79636 -1.63053,2.80743 -0.12532,0.80866 -0.27203,0.93264 2.12922,-1.7992 z m -65.204222,1.76642 c 0.05764,-0.16587 0.525344,-1.38729 1.039343,-2.71426 0.988395,-2.551714 1.440376,-3.188194 2.264013,-3.188194 0.438366,0 0.529455,-0.14237 1.350613,-2.11109 0.484299,-1.16111 1.613763,-3.66184 2.50992,-5.55718 l 1.629377,-3.44609 -0.347,-0.46934 c -0.321214,-0.43447 -0.330597,-0.54264 -0.126271,-1.45567 0.121401,-0.54247 0.356497,-1.39786 0.522436,-1.90085 0.165938,-0.50299 0.27077,-0.91453 0.23296,-0.91453 -0.308552,0 -1.963953,1.02323 -2.59638,1.60487 -1.094473,1.00658 -3.192878,4.01645 -4.210997,6.04009 -2.530421,5.02953 -4.857589,12.437964 -4.29496,13.672794 0.321633,0.70591 1.821366,1.03106 2.026946,0.43945 z m 6.182702,-0.94784 c 0.257997,-0.68718 0.536203,-1.32309 0.618237,-1.41314 0.08203,-0.09 0.149151,-0.21817 0.149151,-0.28472 0,-0.208904 -1.054143,-0.499404 -1.812153,-0.499404 H 53.44776 l -0.517346,1.163264 c -0.876202,1.97015 -0.895726,1.85225 0.34002,2.0532 0.59346,0.0965 1.169176,0.18778 1.27937,0.20284 0.110193,0.0151 0.41144,-0.53485 0.669436,-1.22204 z m 74.79976,-0.6788 c -0.30087,-1.881524 -2.93667,-5.097264 -4.99076,-6.088844 -0.98703,-0.47647 -2.86565,-0.79893 -2.86484,-0.49174 2.2e-4,0.0828 0.46948,0.37931 1.04281,0.65884 1.77437,0.86513 4.39905,3.34176 6.20165,5.851844 0.31274,0.43548 0.60416,0.79179 0.6476,0.79179 0.0434,0 0.027,-0.32485 -0.0365,-0.72189 z m -20.03129,-0.66712 0.65101,-0.872014 -0.96632,-1.19601 c -0.53148,-0.6578 -1.01316,-1.196 -1.0704,-1.196 -0.15968,0 -1.60449,1.21352 -1.60388,1.34713 8.3e-4,0.1818 2.0685,2.788894 2.21185,2.788894 0.0697,0 0.41968,-0.3924 0.77774,-0.872 z M 57.886661,95.356776 c 0.447586,-1.18479 1.35669,-3.55008 2.020232,-5.25619 1.576866,-4.05447 1.513174,-3.81299 1.039179,-3.93998 -0.215921,-0.0578 -0.63006,-0.10623 -0.920308,-0.10753 l -0.527723,-0.002 -1.749025,4.35144 c -1.895138,4.71496 -2.654233,6.70587 -2.58322,6.77511 0.124659,0.12156 1.293139,0.3911 1.57937,0.36433 0.253033,-0.0237 0.513127,-0.52148 1.141495,-2.18483 z m 37.887839,1.4429 c 0.11346,-0.24903 0.25278,-0.79188 0.30959,-1.20634 0.0837,-0.61091 0.0526,-0.75356 -0.16455,-0.75356 -0.14731,0 -0.37334,-0.0405 -0.50229,-0.09 -0.35369,-0.13573 -0.80979,0.2811 -0.98672,0.90177 -0.14074,0.49371 -0.10003,0.60972 0.37801,1.07709 0.29466,0.28809 0.58612,0.52379 0.6477,0.52379 0.0616,0 0.20479,-0.20375 0.31826,-0.45278 z m 10.35508,-0.83298 c 0.36457,-0.38807 0.37917,-0.47053 0.17191,-0.9709 -0.64897,-1.56676 -2.89472,-3.48997 -4.96572,-4.25253 -1.22193,-0.44993 -3.62414,-0.69563 -4.7451,-0.48534 -0.49165,0.0922 -0.62243,0.19663 -0.62225,0.49672 3.1e-4,0.51731 1.61815,1.32539 3.87729,1.93664 2.56078,0.69286 2.86321,0.88027 4.80459,2.97732 0.36771,0.3972 0.76134,0.72218 0.87472,0.72218 0.11338,0 0.38543,-0.19084 0.60456,-0.42409 z m 12.49279,-3.44847 c 0.16603,-0.61336 0.84001,-2.21198 1.49774,-3.55249 l 1.19588,-2.43728 -0.26525,-0.79895 c -0.48316,-1.45529 -0.62542,-3.32174 -0.72967,-9.573379 l -0.10322,-6.189412 -0.33,0.64323 c -0.1815,0.353777 -0.6014,1.355352 -0.93312,2.225723 -0.33171,0.870371 -1.24416,2.784524 -2.02766,4.253674 -0.7835,1.469151 -1.47134,2.798624 -1.52853,2.954384 -0.0572,0.15576 0.09,0.89248 0.3271,1.63717 l 0.43108,1.35398 -0.45998,1.89568 -0.45998,1.89568 0.63307,1.43722 c 0.34819,0.79047 0.80323,2.19593 1.0112,3.12323 0.39466,1.75978 0.64207,2.24675 1.14147,2.24675 0.22064,0 0.37636,-0.28951 0.59987,-1.11521 z m 16.23107,-6.24902 c -0.55029,-1.06414 -2.13917,-2.21422 -3.85287,-2.78883 -1.21219,-0.40646 -3.61086,-0.49498 -4.23895,-0.15645 -0.329,0.17733 -0.13169,0.25114 1.56611,0.58583 2.07851,0.40975 3.6357,1.05282 5.53886,2.28739 0.60776,0.39426 1.13695,0.6849 1.17596,0.64589 0.039,-0.039 -0.0461,-0.29724 -0.18911,-0.57383 z m -72.18019,-3.79444 c 0.188042,-0.545 0.396921,-1.12555 0.464176,-1.29011 0.134918,-0.33011 -0.20028,-0.51126 -1.3268,-0.71706 -0.578168,-0.10562 -0.661937,-0.0712 -0.886031,0.36364 -0.136121,0.26415 -0.367752,0.88636 -0.514734,1.38269 l -0.267242,0.90242 0.550103,0.15913 c 0.302556,0.0875 0.795022,0.16613 1.094368,0.17467 0.511963,0.0146 0.564558,-0.0433 0.88616,-0.97538 z m -35.457352,-0.99404 c 7.674593,-2.045624 12.283948,-2.924894 19.36052,-3.693168 1.696215,-0.184151 3.154977,-0.405769 3.241693,-0.492485 0.08671,-0.08672 0.133586,-0.536849 0.104157,-1.000296 l -0.05351,-0.84263 -1.80951,0.0295 c -1.82436,0.02975 -5.972436,0.646879 -12.666572,1.884483 -4.597795,0.850034 -7.714088,1.654181 -9.782263,2.524276 -0.875528,0.36834 -1.119181,0.79133 -0.917864,1.59344 0.13845,0.55163 0.443513,0.55125 2.523347,-0.003 z m 42.365207,-4.848298 c 0.393029,-1.104347 0.693853,-2.028649 0.668498,-2.054004 -0.02535,-0.02536 -0.249647,-0.09719 -0.498425,-0.159626 -0.368845,-0.09257 -0.51562,-0.0236 -0.795286,0.373744 -0.332336,0.472173 -1.595199,3.25949 -1.595199,3.520828 0,0.153902 0.430936,0.27935 1.054491,0.30697 0.424105,0.01879 0.494416,-0.101095 1.165921,-1.987912 z m -5.839966,1.060707 c 0.256684,-0.309285 -0.223351,-0.94947 -2.265794,-3.021711 -2.088019,-2.118481 -4.530942,-3.104359 -7.82929,-3.159629 -1.805046,-0.03025 -2.312453,0.212185 -2.312453,1.104855 0,0.36924 0.11371,0.733486 0.269287,0.862604 0.154142,0.127926 1.01999,0.277296 2.024928,0.349326 3.301687,0.236653 5.336607,1.029085 7.472507,2.909919 1.412961,1.244228 2.17258,1.518825 2.640815,0.954636 z M 88.73015,76.997644 c 0.92019,-0.143199 1.37867,-0.358903 1.37867,-0.648637 0,-0.116152 0.38077,-0.985866 0.84616,-1.932698 0.46538,-0.946831 0.8225,-1.74569 0.79358,-1.775241 -0.0289,-0.02955 -0.73928,0.02163 -1.57858,0.113729 -1.44445,0.158508 -1.55412,0.199961 -2.0522,0.775657 -0.45885,0.530359 -1.80031,3.429192 -1.80031,3.890382 0,0.09814 0.33726,0.07021 0.81859,-0.0678 0.45022,-0.12909 1.16756,-0.289017 1.59409,-0.355392 z m 12.14957,-0.911484 c 0,-1.653513 -0.72594,-3.080251 -2.31656,-4.552922 -2.09813,-1.942553 -4.44163,-2.82492 -7.10106,-2.673672 -1.80865,0.102863 -2.59704,0.449729 -3.3814,1.487726 -0.31359,0.414982 -0.54418,0.78049 -0.51243,0.812241 0.0318,0.03175 0.48065,-0.05482 0.99756,-0.19238 2.08966,-0.556107 5.35111,-0.173471 7.40872,0.869195 1.74993,0.886759 3.62745,3.059504 4.22655,4.891143 0.38848,1.187712 0.67862,0.913518 0.67862,-0.641331 z M 31.935101,74.116556 c 0.04999,-0.308048 0.111669,-1.645793 0.137059,-2.972767 0.03767,-1.968694 0.002,-2.412681 -0.193737,-2.412681 -0.79122,0 -1.40507,2.546973 -1.070975,4.443663 0.09912,0.562692 0.269619,1.130805 0.378894,1.262474 0.335124,0.4038 0.653299,0.267527 0.748759,-0.320689 z m -5.300563,-2.950694 c 0.07188,-2.451617 0.05929,-2.586534 -0.21105,-2.262419 -0.557134,0.667953 -0.767699,1.447874 -0.767699,2.843516 0,1.61125 0.400082,2.915847 0.720242,2.348586 0.10014,-0.177428 0.216468,-1.495785 0.258507,-2.929683 z m 19.992848,2.577623 c 0.01814,-0.01276 0.08168,-0.3823 0.141203,-0.821208 0.106114,-0.782459 0.09791,-0.800278 -0.420731,-0.914192 -0.790005,-0.173514 -1.510777,0.03934 -1.629249,0.481138 -0.132767,0.495107 -0.133558,1.24079 -0.0015,1.372891 0.08239,0.08239 1.77376,-0.02265 1.910234,-0.118629 z m -9.272598,-0.38486 c 0.457161,-1.003359 0.55438,-5.166047 0.123243,-5.276975 -0.471199,-0.121237 -1.000094,3.62672 -0.721414,5.112216 0.138412,0.737798 0.314925,0.786417 0.598171,0.164759 z M 70.70917,69.765114 c 1.01272,-0.331743 1.98565,-0.60317 2.16205,-0.60317 0.24329,0 0.41314,-0.280896 0.70341,-1.163257 0.21047,-0.639791 0.57098,-1.539332 0.80114,-1.99898 0.23016,-0.459648 0.36769,-0.886176 0.30561,-0.947839 -0.28227,-0.280412 -2.17279,-0.06124 -2.96769,0.344058 -0.721545,0.367895 -0.903305,0.583208 -1.511881,1.790982 -0.715907,1.420784 -1.484393,3.181376 -1.388647,3.181376 0.03008,0 0.883285,-0.271426 1.896008,-0.60317 z M 55.297291,68.106681 c 1.744905,-0.925832 4.380411,-2.156991 5.888778,-2.750905 1.415836,-0.55748 1.500265,-0.620011 1.608798,-1.191527 0.263067,-1.385269 1.298789,-2.96446 3.130663,-4.773398 0.978907,-0.966652 1.779831,-1.801153 1.779831,-1.854448 0,-0.0533 -0.55037,-1.719096 -1.223046,-3.701778 l -1.223046,-3.604878 -0.801882,0.575628 c -0.441035,0.316595 -1.275632,0.873306 -1.85466,1.237135 -0.579028,0.363829 -2.577852,1.68905 -4.441831,2.944937 -1.863978,1.255886 -3.461813,2.283429 -3.550743,2.283429 -0.08893,0 -0.47278,0.458099 -0.853,1.017998 -0.898978,1.323804 -1.213458,1.554786 -3.326245,2.443099 -1.227742,0.516199 -2.031959,0.983588 -2.63016,1.528576 -0.473919,0.431763 -1.268811,0.972432 -1.766427,1.201486 l -0.904755,0.416462 9.61e-4,1.564634 c 5.29e-4,0.860549 0.08172,1.855448 0.180435,2.210888 0.178518,0.642813 0.184332,0.646254 1.091934,0.646254 h 0.91246 l 0.214194,-0.714919 0.214195,-0.714918 1.956261,0.104838 c 2.393168,0.128254 3.067541,0.373625 3.376713,1.228623 0.207867,0.574848 0.267619,0.61593 0.749306,0.51518 0.287885,-0.06021 0.949955,-0.335793 1.471266,-0.612396 z m 28.289469,-0.46529 c -0.009,-1.207196 -0.52839,-2.13074 -2.00937,-3.575343 -2.0775,-2.026467 -4.53129,-2.994642 -7.75238,-3.058806 -1.24236,-0.02475 -1.66119,0.03154 -2.03069,0.272928 -0.474549,0.310013 -1.023857,1.230824 -1.218541,2.042659 l -0.108174,0.451088 0.729973,-0.364921 c 0.627702,-0.313793 1.019712,-0.363064 2.797982,-0.351674 1.75565,0.01124 2.27626,0.08246 3.44669,0.471466 0.75827,0.252022 1.66108,0.633814 2.00624,0.848426 1.32645,0.824749 2.70501,2.330463 3.41332,3.728145 0.46965,0.926745 0.73441,0.757299 0.72495,-0.463968 z M 29.791812,60.8094 c 2.248963,-0.360984 5.013078,-0.332606 7.496543,0.07697 2.410829,0.397591 2.897265,0.423281 2.805561,0.148166 C 39.9754,60.678989 38.249392,59.819955 36.988277,59.48886 33.986784,58.700844 29.75534,59.384263 27.809968,60.971246 l -0.344669,0.281171 0.344669,-0.09011 c 0.189568,-0.04956 1.081398,-0.208367 1.981844,-0.352899 z m 13.620553,-8.221743 c -0.669211,-1.788626 -2.582931,-3.41134 -4.027276,-3.414876 -0.874638,-0.0021 -0.77476,0.236359 0.50175,1.198129 0.561295,0.422901 1.64094,1.404653 2.399211,2.18167 0.758271,0.777018 1.401446,1.315405 1.429279,1.196415 0.02783,-0.118989 -0.108502,-0.641591 -0.302964,-1.161338 z m 61.775705,-3.816515 c -1.98052,0 3.17757,-0.118109 4.87939,-0.943945 1.3815,-0.670394 1.8522,-0.494432 3.3798,-2.006961 3.04689,-3.016843 4.72825,-5.180737 5.61227,-8.876147 0.19296,-0.806597 0.18766,-1.366523 0.18766,-1.366523 l -0.0667,-7.713829 c 0,0 -0.52056,0.01637 -1.02032,0.17286 -4.57225,1.431691 -11.38279,1.474599 -17.96976,0.113212 -6.03269,-1.246829 -11.35768,-3.566087 -14.50673,-6.3183 -0.58557,-0.511769 -1.10668,-0.862504 -1.15803,-0.77941 -0.25418,0.411269 -1.17242,3.53707 -1.30471,6.230743 -0.31184,6.349518 0.39208,8.653981 2.57983,11.942608 2.44132,3.669793 5.174,5.836338 9.40769,7.530207 3.31764,1.327363 12.86528,2.015485 9.97964,2.015485 z m 32.82969,66.612828 c -166.68781,-135.503434 -166.68781,-135.503434 0,0 z" /></g></svg>
