<?xml version="1.0" encoding="UTF-8" standalone="no"?>
<!-- Created with Inkscape (http://www.inkscape.org/) -->

<svg
   width="250mm"
   height="250mm"
   viewBox="0 0 249.99999 250"
   version="1.1"
   id="svg1"
   xml:space="preserve"
   sodipodi:docname="classic-bike-monotone.svg"
   inkscape:version="1.4.2 (f4327f4, 2025-05-13)"
   xmlns:inkscape="http://www.inkscape.org/namespaces/inkscape"
   xmlns:sodipodi="http://sodipodi.sourceforge.net/DTD/sodipodi-0.dtd"
   xmlns="http://www.w3.org/2000/svg"
   xmlns:svg="http://www.w3.org/2000/svg"><sodipodi:namedview
     id="namedview1"
     pagecolor="#ffffff"
     bordercolor="#000000"
     borderopacity="0.25"
     inkscape:showpageshadow="2"
     inkscape:pageopacity="0.0"
     inkscape:pagecheckerboard="0"
     inkscape:deskcolor="#d1d1d1"
     inkscape:document-units="mm"
     inkscape:zoom="0.75811591"
     inkscape:cx="385.16538"
     inkscape:cy="439.90635"
     inkscape:window-width="1920"
     inkscape:window-height="1111"
     inkscape:window-x="-9"
     inkscape:window-y="-9"
     inkscape:window-maximized="1"
     inkscape:current-layer="layer1" /><defs
     id="defs1"><rect
       x="-154.83086"
       y="280.7475"
       width="698.60425"
       height="516.72467"
       id="rect75" /><rect
       x="56.719563"
       y="134.54408"
       width="94.97229"
       height="102.88665"
       id="rect74" /></defs><g
     inkscape:label="Layer 1"
     inkscape:groupmode="layer"
     id="layer1"><rect
       style="fill:#000000;stroke-width:0.36196"
       id="rect139"
       width="250"
       height="250"
       x="1.749598e-09"
       y="1.2648341e-10" /><path
       style="fill:#ffffff;stroke-width:0.914516"
       d="m 75.034887,221.99318 c -2.281336,-2.21196 -3.030177,-3.84555 -3.027918,-6.60532 0.002,-2.51118 0.566725,-5.96141 1.322752,-8.08227 0.412132,-1.15615 0.339463,-1.49787 -0.388322,-1.82606 -0.762403,-0.34379 -1.651386,-1.29138 -2.040077,-2.17456 -0.156539,-0.35568 -0.405092,-1.24408 -0.552341,-1.9742 -0.541164,-2.68337 0.0094,-5.16241 2.36602,-10.65435 0.731524,-1.70474 1.330044,-3.2125 1.330044,-3.35058 0,-0.1381 -0.22943,-0.39386 -0.509845,-0.56838 -0.839543,-0.5225 -1.937803,-1.76045 -2.535395,-2.85786 -0.625762,-1.14914 -1.027027,-2.55807 -1.426921,-5.01025 -0.332337,-2.0379 -1.392526,-6.65743 -1.673616,-7.29239 -0.114587,-0.25883 -0.500906,-0.96478 -0.858485,-1.56875 -0.715141,-1.2079 -0.967345,-1.88972 -1.033117,-2.79295 -0.04109,-0.56427 -0.09047,-0.61581 -0.908404,-0.94825 -1.605842,-0.65266 -2.735789,-1.40764 -4.010288,-2.67947 -1.663432,-1.65996 -2.063807,-2.36612 -2.268903,-4.00181 -0.201604,-1.60782 0.0014,-3.23758 0.572981,-4.59979 0.457697,-1.0908 1.797577,-3.18444 2.598847,-4.06084 0.550132,-0.60171 3.767673,-3.18382 5.027547,-4.03466 0.40685,-0.27475 1.042195,-0.86832 1.411878,-1.31903 0.369682,-0.45071 1.646532,-1.79129 2.837443,-2.97907 1.572819,-1.56869 2.269927,-2.38436 2.547691,-2.98096 0.210318,-0.45175 0.383086,-0.92043 0.383929,-1.04153 8.43e-4,-0.12109 0.17136,-0.57995 0.378926,-1.01968 0.207567,-0.43974 0.428515,-1.15248 0.490997,-1.58389 0.119229,-0.82323 0.391835,-1.47412 0.879419,-2.09976 0.160363,-0.20576 0.29157,-0.54698 0.29157,-0.75824 0,-0.21126 0.202497,-0.89003 0.449996,-1.50838 0.247497,-0.61834 0.538759,-1.65371 0.647247,-2.30082 0.108488,-0.64711 0.406986,-1.9178 0.663329,-2.82376 0.256343,-0.90596 0.767068,-2.84742 1.134943,-4.31438 0.367876,-1.46695 0.921744,-3.2671 1.23082,-4.00032 1.148467,-2.7245 2.136639,-5.62965 2.614553,-7.68656 1.075562,-4.62916 1.949739,-6.60942 3.981987,-9.02034 l 1.32236,-1.568756 -0.64964,-0.0856 c -0.959608,-0.126494 -1.288307,-0.371292 -1.726952,-1.286137 -0.595028,-1.240999 -0.660521,-2.060762 -0.251895,-3.152914 0.291649,-0.779497 0.477437,-1.010907 1.25863,-1.567719 0.504062,-0.359277 0.920282,-0.704196 0.924934,-0.766484 0.0082,-0.110034 1.305717,-2.956 1.552265,-3.40478 0.07229,-0.131599 -0.0364,-0.648173 -0.264055,-1.255 -0.778546,-2.075211 -0.43002,-4.560078 0.773264,-5.513097 1.101757,-0.872608 1.739755,-1.821387 1.972995,-2.934077 0.286781,-1.368121 1.268807,-3.651847 2.443857,-5.683262 2.64621,-4.574733 3.92056,-6.2921 5.41657,-7.299569 1.252793,-0.843677 7.188373,-3.560107 9.919233,-4.539549 1.71653,-0.615647 2.06426,-0.800554 3.68721,-1.960665 0.86246,-0.616499 2.30287,-1.558173 3.20091,-2.092608 1.38489,-0.824175 1.74579,-1.126513 2.37709,-1.99139 1.12772,-1.544949 2.1102,-2.269717 3.49419,-2.577627 1.00408,-0.223386 1.23175,-0.343502 1.84086,-0.971185 1.86927,-1.926279 5.73569,-4.268535 9.1847,-5.564042 1.63725,-0.614982 1.65612,-0.617953 4.49946,-0.70858 2.19361,-0.06991 3.34612,-0.02932 4.97313,0.175197 1.1648,0.146413 2.47275,0.301634 2.90655,0.344935 l 0.78874,0.07873 0.3705,-1.546068 c 0.87149,-3.636727 2.67916,-7.876173 4.5723,-10.723274 1.10716,-1.665064 3.4333,-4.081833 5.01006,-5.205277 0.56083,-0.39959 2.04755,-1.22851 3.30382,-1.842046 2.9466,-1.439058 4.00353,-1.651444 7.59902,-1.526987 1.3805,0.04778 2.79237,0.163475 3.1375,0.257086 0.34512,0.09361 1.50992,0.337744 2.58844,0.542519 2.1885,0.415523 4.61261,1.426275 6.14758,2.563288 1.47005,1.088923 3.86678,3.479846 4.84081,4.829087 1.90558,2.639636 3.25991,5.857307 3.59271,8.53573 0.60047,4.832554 -0.25397,12.822233 -1.72252,16.106953 l -0.43115,0.964373 0.6478,0.290629 c 1.36469,0.612245 3.62016,3.069005 7.10785,7.742204 2.34318,3.139638 3.11201,4.408428 4.45797,7.356889 2.02438,4.434641 2.29585,7.460763 1.22581,13.664393 -0.41383,2.399197 -0.65681,3.303745 -1.39905,5.208335 -0.6053,1.553187 -0.61959,1.633665 -0.48409,2.725122 0.17247,1.389141 -0.005,2.450647 -0.63766,3.824883 -0.66341,1.43989 -0.72083,1.6801 -0.9145,3.82589 -0.0947,1.04905 -0.31031,2.59282 -0.47915,3.43059 -0.28799,1.42897 -0.29237,1.61341 -0.0706,2.98063 0.36521,2.25183 0.32919,7.87392 -0.0602,9.39373 -0.42297,1.65101 -0.96025,2.76843 -1.76577,3.67245 -0.3844,0.43141 -1.02356,1.20794 -1.42036,1.72563 -1.13597,1.48209 -2.3793,2.5521 -4.0808,3.51191 -0.50378,0.28417 -1.22642,0.89273 -1.64719,1.38713 -0.79212,0.93074 -2.84414,2.64866 -3.42969,2.87129 -0.22914,0.0871 -0.43436,0.39437 -0.60348,0.90357 -0.54764,1.64877 -1.3932,2.55818 -2.79539,3.00645 -0.32356,0.10343 -0.58779,0.23553 -0.58718,0.29355 6.1e-4,0.058 0.46263,0.91732 1.02672,1.90956 2.62798,4.62265 3.46151,6.96107 4.94874,13.88346 0.41379,1.926 0.50811,2.72331 0.51966,4.3925 0.0134,1.94497 -0.0129,2.12291 -0.56956,3.84345 -0.321,0.99224 -0.89674,2.33685 -1.27941,2.98802 -1.14062,1.94092 -3.64068,4.0267 -5.95556,4.96866 -1.10275,0.44872 -3.76622,1.04362 -5.80286,1.29608 -0.76188,0.0944 -2.20905,0.38785 -3.21595,0.65202 -1.52646,0.40049 -2.30002,0.50323 -4.65447,0.61818 -1.55307,0.0758 -3.21202,0.21318 -3.68657,0.30522 -0.47455,0.092 -1.28638,0.25043 -1.80407,0.35197 -0.51769,0.10154 -2.28253,0.19633 -3.92188,0.21065 -1.63935,0.0143 -3.65128,0.0765 -4.47095,0.13821 -1.21784,0.0917 -1.61938,0.0635 -2.19625,-0.15424 -1.20661,-0.45538 -1.50576,-0.46016 -2.23151,-0.0357 -0.97845,0.57231 -2.22686,0.89716 -3.44789,0.89716 h -1.07305 l -0.84273,0.84272 c -0.61855,0.61855 -1.12884,0.95377 -1.91832,1.26017 -0.59157,0.2296 -1.54419,0.76358 -2.11692,1.18664 -0.96605,0.71358 -1.10206,0.89184 -1.88102,2.46562 -0.81004,1.63654 -0.84085,1.74626 -0.87273,3.1083 -0.0583,2.49305 -0.81905,5.49019 -1.80848,7.12548 -0.64138,1.06007 -1.8636,1.78975 -3.44449,2.0564 -1.73006,0.29181 -3.05453,-0.0963 -4.83653,-1.41739 -0.58132,-0.43095 -1.14741,-0.78354 -1.25799,-0.78354 -0.28059,0 -1.99119,0.96879 -3.77774,2.13951 -2.15943,1.41508 -3.95597,2.25249 -4.83799,2.25514 -1.07242,0.004 -1.30369,0.1154 -1.75383,0.85075 -0.52101,0.85112 -1.48174,1.23399 -2.72873,1.08743 l -0.8186,-0.0962 -0.90323,1.54872 c -0.92551,1.58694 -3.61872,5.67845 -4.86609,7.35313 -1.95275,2.62167 -18.910205,24.83045 -27.166823,16.82487 z M 120.0652,139.73643 c -0.97185,-0.0866 -0.96071,1.11412 -1.83175,4.65816 -0.65933,2.68267 -1.41094,4.40504 -3.34645,8.77939 -1.56972,3.54768 -4.35872,9.04311 -6.30656,12.42644 -0.50793,0.88227 -1.93169,3.43957 -3.16389,5.68289 -3.53346,6.43292 -3.63615,6.61655 -5.08826,9.09876 -1.468223,2.50976 -7.015153,11.74459 -8.027601,13.3648 -0.333947,0.53441 -1.101333,1.76723 -1.705303,2.73961 -2.20295,3.5467 -6.104517,8.76775 -8.229241,11.01234 -0.970732,1.0255 -1.655408,1.43252 -2.835391,1.68557 -0.683875,0.14668 -0.841245,0.13387 -1.086815,-0.0883 -0.704112,-0.6372 -0.471501,-2.6192 0.768764,-6.55035 0.32179,-1.01995 0.948873,-2.55792 2.99232,-7.33889 0.534728,-1.25108 1.134059,-2.73355 1.331847,-3.29438 0.197789,-0.56083 0.518358,-1.3711 0.712377,-1.80061 0.274314,-0.60726 0.347834,-1.04021 0.3306,-1.94687 -0.01219,-0.64127 -0.04837,-1.19215 -0.0804,-1.22418 -0.199496,-0.19949 -5.17402,11.03568 -6.664181,15.05134 -0.469587,1.92642 -3.296978,10.45522 -1.411092,11.88285 0.605349,0.45825 3.466705,1.72243 11.483343,-7.42521 0.293243,-0.33461 3.397568,-4.23849 4.288821,-5.36014 0.891259,-1.12166 2.484009,-3.3571 3.539449,-4.96764 1.05544,-1.61055 2.40083,-3.65778 2.98976,-4.54938 1.13238,-1.7144 3.739713,-5.89673 4.580283,-7.34707 5.17879,-8.9357 7.41942,-13.10309 11.75429,-21.86198 4.04171,-8.16658 4.67306,-9.64455 6.30865,-14.7684 0.58555,-1.8344 1.39039,-6.7399 0.76842,-7.15253 -0.54754,-0.44532 -1.24236,-0.67461 -2.07199,-0.70618 z m -39.319581,66.68516 c 0.186174,-0.1304 0.686058,-0.75674 1.110852,-1.39186 0.645679,-0.96537 0.842672,-1.44379 1.201111,-2.91704 0.728559,-2.99451 1.882446,-5.81814 3.140038,-7.68387 l 0.577257,-0.8564 -0.246781,-0.87952 c -0.135729,-0.48373 -0.24678,-1.24329 -0.24678,-1.6879 0,-0.65616 -0.04456,-0.79128 -0.236667,-0.71756 -0.130167,0.0499 -0.282531,0.27355 -0.338588,0.49691 -0.09417,0.3752 -0.438593,1.13475 -2.36105,5.20681 -0.626211,1.32642 -1.249615,2.86296 -2.895944,7.13783 -0.462522,1.20099 -0.747707,2.67137 -0.631349,3.25516 0.06724,0.33739 0.476108,0.35389 0.927901,0.0374 z m 6.413618,-7.95964 c 1.265985,-1.92151 2.565907,-4.13468 2.571129,-4.37744 0.0012,-0.0564 -0.348239,0.0306 -0.776561,0.19332 -0.428322,0.16275 -0.884226,0.25545 -1.01312,0.20598 -0.163016,-0.0625 -0.265894,0.0457 -0.337966,0.35575 -0.05698,0.24512 -0.525437,1.34511 -1.041001,2.44444 -0.910323,1.94107 -1.289641,3.25654 -0.939026,3.25654 0.09188,0 0.78333,-0.93537 1.536545,-2.07859 z m -11.284578,-3.12652 c 1.268287,-1.29612 2.689291,-3.22045 3.364252,-4.5559 0.590134,-1.16761 0.576705,-1.36475 -0.02292,-0.33637 -0.596483,1.02299 -2.78926,3.49801 -3.429095,3.87046 -0.624499,0.36353 -0.624452,0.37229 -0.01257,-2.36435 0.260852,-1.16668 0.438261,-2.15725 0.394242,-2.20127 -0.247792,-0.24779 -2.280395,5.28642 -2.280395,6.20889 0,0.55501 0.273858,0.85262 0.612314,0.66541 0.137775,-0.0762 0.756153,-0.6553 1.374174,-1.28687 z m 12.446036,-3.39608 c 0,-0.0714 0.559557,-0.80556 1.243461,-1.63134 2.918984,-3.52455 4.908601,-6.36841 6.699021,-9.57529 3.51652,-6.29854 4.516583,-8.26129 6.373283,-12.50849 1.62288,-3.71234 1.74911,-4.04108 2.46974,-6.43188 0.27307,-0.90596 0.56129,-1.80934 0.64051,-2.00754 0.34515,-0.86358 -0.0611,-2.07121 -0.69674,-2.07121 -0.30027,0 -0.8219,0.6928 -1.59455,2.11781 l -0.59542,1.09813 0.59422,-0.54907 0.59421,-0.54906 -0.10653,1.09428 c -0.0586,0.60185 -0.27306,1.59016 -0.4766,2.19625 -0.57487,1.71185 -3.848373,9.04107 -5.510273,12.33726 -2.74127,5.43699 -7.058594,12.75772 -8.916725,15.11976 -0.725297,0.922 -1.060155,1.49032 -0.8781,1.49032 0.08827,0 0.160493,-0.0584 0.160493,-0.12993 z m -1.205471,-4.28697 c 1.847861,-0.97751 4.099404,-3.95346 8.705153,-11.50594 2.35275,-3.85803 4.617933,-8.85139 5.363833,-11.82404 0.0743,-0.29603 0.0732,-0.46877 -0.002,-0.3922 -0.0743,0.0753 -1.02194,1.84896 -2.105803,3.94156 -1.08386,2.09261 -2.52295,4.73987 -3.19797,5.88283 -0.67503,1.14295 -1.67522,2.85463 -2.22264,3.80373 -1.637156,2.83845 -3.030763,4.80499 -4.141104,5.8436 -1.067203,0.99826 -1.432748,1.19763 -1.294308,0.70594 0.04252,-0.15099 0.126483,-0.52161 0.186597,-0.82359 0.14757,-0.74132 0.933394,-2.62137 2.263651,-5.41569 1.767808,-3.71343 1.409579,-3.24386 -1.997209,2.61802 -1.027926,1.76869 -2.143628,4.23033 -2.385786,5.26391 -0.226704,0.9676 -0.09095,2.08314 0.253505,2.08314 0.12751,0 0.386032,-0.0816 0.574493,-0.18127 z m 32.196746,-1.56105 c 0.30878,-0.61315 0.52724,-1.20386 0.48549,-1.31269 -0.0418,-0.10883 -0.25745,-0.23257 -0.47929,-0.27497 -0.36535,-0.0699 -0.46266,0.0328 -1.03258,1.08941 -0.34607,0.64159 -0.62922,1.19868 -0.62922,1.23798 0,0.0909 0.64371,0.35201 0.90006,0.36514 0.10677,0.005 0.44676,-0.49172 0.75554,-1.10487 z m 2.46351,-5.93277 c 4.5842,-7.79063 14.08399,-25.8631 14.07279,-26.77217 l -0.005,-0.45749 -0.35985,0.43972 c -0.19792,0.24185 -0.94821,1.58314 -1.66731,2.98063 -3.50923,6.8198 -6.23176,11.88049 -11.32563,21.05219 -0.38337,0.69025 -1.13664,2.08979 -1.67394,3.1101 -0.88623,1.68286 -0.94455,1.85035 -0.62829,1.80406 0.26136,-0.0382 0.65889,-0.57827 1.58788,-2.15704 z m -46.820233,0.0527 c 0.944853,-0.47084 1.896141,-1.52818 2.810297,-3.1236 0.677969,-1.18321 6.037068,-12.25297 6.683295,-13.80502 0.215551,-0.51768 0.918763,-2.07075 1.562694,-3.45126 1.714206,-3.67503 1.960408,-4.22498 2.70383,-6.03969 0.779725,-1.90333 -0.36161,-3.8003 -1.609915,-1.255 -1.248304,2.5453 -2.57262,5.33376 -2.942925,6.19657 -0.370305,0.86282 -0.920511,2.10445 -1.22268,2.7592 -0.302169,0.65475 -1.518417,3.4432 -2.702775,6.19657 -2.487733,5.78343 -2.598148,6.01467 -3.94157,8.25462 -1.570772,2.61901 -2.102948,2.86876 -4.0153,1.88437 -0.172293,-0.0887 -0.141917,0.73472 0.053,1.43671 0.218467,0.78682 0.787433,1.35263 1.360164,1.35263 0.245825,0 0.813674,-0.18274 1.261885,-0.4061 z m 12.684756,-4.46925 c 0.639366,-0.30952 1.56124,-1.19891 1.404822,-1.35532 -0.04023,-0.0402 -0.329359,0.0195 -0.642517,0.13275 -0.636676,0.23022 -0.858946,0.0736 -0.863588,-0.6085 -0.0013,-0.19413 -0.07624,-0.35297 -0.166494,-0.35297 -0.231115,0 -0.930658,1.55932 -0.932502,2.0786 -0.0019,0.53151 0.270656,0.55545 1.200279,0.10544 z m -13.073779,-0.5858 0.302853,-0.51856 -0.524192,-1.72982 c -0.43823,-1.44615 -0.592395,-1.76509 -0.940089,-1.94489 -0.798729,-0.41304 -1.39913,-2.53995 -1.39913,-4.9564 0,-0.76475 -0.05294,-1.39024 -0.117656,-1.38996 -0.06471,2.7e-4 -0.54122,0.28243 -1.058908,0.627 -0.517689,0.34458 -1.064792,0.62673 -1.215784,0.627 -0.595876,9.2e-4 -0.308323,1.00827 1.218017,4.26624 2.801433,5.97965 3.010204,6.26022 3.734889,5.01939 z m 19.213803,-3.45636 c 0.41842,-0.87518 0.50308,-1.18171 0.35215,-1.275 -0.41604,-0.25712 -0.7462,0.0567 -1.385705,1.31726 -0.741691,1.46195 -0.774961,1.60855 -0.386239,1.70195 0.379432,0.0912 0.774114,-0.3937 1.419794,-1.74421 z m -3.216195,-2.10298 1.358852,-2.54922 -0.574683,-0.12117 c -0.316076,-0.0667 -0.6368,-0.10046 -0.712721,-0.0752 -0.07592,0.0253 -0.626158,1.13344 -1.222747,2.46252 -0.821726,1.83063 -1.042882,2.4669 -0.91219,2.62438 0.430023,0.51814 0.70642,0.20453 2.063489,-2.34136 z m 4.984795,-1.41188 c 0.47792,-0.75955 7.905323,-15.63837 8.124693,-16.27566 0.39572,-1.14961 -0.27595,-0.0732 -1.90864,3.05892 -0.89954,1.72563 -2.394653,4.58468 -3.322473,6.35345 -1.83379,3.4959 -3.68963,7.16391 -3.68963,7.29246 0,0.0444 0.10693,0.0807 0.23762,0.0807 0.13069,0 0.38198,-0.22943 0.55843,-0.50984 z m -16.98862,-1.60797 0.929691,-1.49032 c 1.50609,-2.41429 2.009388,-3.38976 3.116209,-6.03969 1.263101,-3.0241 1.949782,-4.9993 1.949782,-5.60844 0,-0.41197 -0.04296,-0.44687 -0.494809,-0.40198 -0.476031,0.0473 -0.507917,0.0968 -0.840161,1.30416 -0.62271,2.26293 -1.241952,3.37282 -1.881793,3.37282 -0.340582,0 -0.364256,-0.0492 -0.283261,-0.58828 0.04861,-0.32356 0.31857,-1.30137 0.59991,-2.17294 0.671582,-2.08047 0.810587,-2.88629 0.497893,-2.88629 -0.12845,0 -1.021933,0.85106 -1.985519,1.89124 -1.751684,1.89092 -1.752229,1.89176 -3.300515,5.05923 -0.851698,1.74239 -1.551009,3.42593 -1.648245,3.71705 -0.228641,0.68453 -0.884487,2.72831 -0.420541,4.70626 0.213409,0.90982 2.965025,0.1474 3.761359,-0.86282 z m 64.522803,-8.4847 0.45011,0.37875 1.24097,-0.83063 c 1.34886,-0.90284 6.5551,-3.53035 8.57161,-4.32595 0.69025,-0.27233 2.16228,-0.80127 3.27118,-1.17541 1.1089,-0.37414 2.05779,-0.72188 2.10865,-0.77274 0.0508,-0.0508 -0.47896,-0.63781 -1.17738,-1.30434 -0.69842,-0.66654 -1.45406,-1.51191 -1.67921,-1.8786 -0.22515,-0.3667 -0.44954,-0.66672 -0.49865,-0.66672 -0.0491,0 -0.39516,0.25064 -0.769,0.55698 -1.05183,0.86189 -3.8412,2.20984 -5.19722,2.51152 -1.46056,0.32495 -2.71735,0.22661 -4.33051,-0.33884 -0.62721,-0.21986 -1.25366,-0.43537 -1.39213,-0.47892 -0.16872,-0.053 -0.36275,0.10896 -0.58828,0.4912 -0.42903,0.72714 -0.42819,0.73488 0.14572,1.34926 1.60374,1.71681 -0.27485,2.66371 -0.57177,5.01519 -0.0637,0.50507 -0.74872,0.62327 0.41591,1.46925 z m -16.7568,7.34741 c 0.99169,-2.00698 4.5282,-8.87622 4.66415,-9.05955 0.064,-0.0862 0.73301,-1.37573 1.48674,-2.86542 1.04325,-2.06191 1.34706,-2.80158 1.2726,-3.09829 -0.0642,-0.25574 -0.20785,-0.38975 -0.41786,-0.38975 -0.25475,0 -0.49704,0.37604 -1.18765,1.84329 -0.47719,1.01381 -1.21392,2.5642 -1.63718,3.44532 -0.42326,0.88112 -0.9753,2.11652 -1.22675,2.74532 -0.25146,0.6288 -0.68216,1.63744 -0.95712,2.24141 -0.7031,1.54446 -2.82281,6.39332 -2.82281,6.45727 0,0.24588 0.24859,-0.15131 0.82588,-1.3196 z m -30.953453,-3.56892 c 1.12503,-2.24332 2.63708,-5.20826 3.36011,-6.58876 0.72303,-1.3805 2.284383,-4.43452 3.469683,-6.7867 l 2.15507,-4.27669 0.59206,-1.17191 c 0,0 2.12205,-4.26766 2.38702,-4.5896 0.19606,-0.2382 0.66459,-0.2531 1.07374,-0.0341 0.28931,0.15484 0.27594,0.21526 -0.3036,1.37266 -0.33343,0.66589 -0.76759,1.65606 -0.96483,2.2004 -0.33162,0.91522 -0.33934,1.00896 -0.10264,1.24566 0.14078,0.14078 0.28487,0.22487 0.3202,0.18687 0.0353,-0.038 0.45471,-0.84564 0.93196,-1.79473 0.47725,-0.9491 1.05007,-1.96877 1.27294,-2.26596 0.22286,-0.29717 0.40522,-0.62349 0.40522,-0.72517 0,-0.30859 -1.38817,-1.48646 -2.1687,-1.84014 -0.82523,-0.37395 -2.4014,-0.45397 -2.94797,-0.14968 -0.18547,0.10326 -0.97273,1.38158 -1.7839,2.89664 -0.79855,1.49149 -2.13348,3.9825 -2.9665,5.53556 -1.699523,3.16853 -9.974995,19.72847 -10.132563,20.27614 -0.09405,0.32689 -0.05152,0.35322 0.575739,0.35641 0.702665,0.004 1.882688,0.44683 2.092262,0.78594 0.197431,0.31945 0.554369,-0.28524 2.734699,-4.63283 z m 13.700053,0 c 3.65753,-7.82741 4.50156,-9.75728 5.86616,-13.41284 1.54292,-4.13326 1.72763,-4.67268 2.08801,-6.09758 0.65425,-2.58681 0.21517,-3.2724 -1.29452,-2.02131 -0.44288,0.36702 -0.96483,0.8438 -1.15988,1.0595 -0.43249,0.47829 -1.36935,2.18771 -1.25931,2.29775 0.0436,0.0437 0.37921,-0.31773 0.74566,-0.80309 0.71406,-0.94577 1.02592,-1.18091 1.56625,-1.18091 0.28054,0 0.32402,0.0637 0.24081,0.35298 -0.0559,0.19412 -0.26922,1.20482 -0.47413,2.24597 -0.83241,4.22926 -1.80715,6.90763 -5.6197,15.44172 -1.79303,4.01352 -2.17565,4.94134 -1.93546,4.69318 0.0348,-0.0359 0.59104,-1.19486 1.23611,-2.57537 z m -44.159946,-0.36776 c 1.290283,-0.94579 12.905943,-18.77114 14.725587,-18.22201 0.06215,0 -0.06157,-0.19413 -0.274946,-0.4314 -0.213373,-0.23727 -0.650488,-0.82535 -0.971368,-1.30682 -0.736222,-1.10468 -1.260103,-1.59961 -1.619869,-1.53032 -0.180749,0.0348 -0.424529,0.41911 -0.680714,1.07311 -0.398059,1.42891 -1.523714,2.22282 -2.595373,3.17208 -3.013668,2.65536 -5.569072,5.32717 -5.569072,5.82274 0,0.35959 -0.06536,0.41688 -0.475665,0.41688 -0.839337,0 -1.571163,0.44056 -2.93164,1.76485 -1.407057,1.36963 -2.007814,2.32947 -2.559645,4.08956 -0.369378,1.17814 -0.382402,1.71528 -0.06424,2.64905 0.349909,1.02693 2.623844,2.79043 2.623844,2.79043 z m 43.121206,-6.92694 c 3.71166,-4.80214 5.23,-7.0101 5.23,-7.60543 0,-0.146 -2.74717,2.75854 -3.77512,3.99138 -0.90709,1.08789 -3.39483,4.37206 -3.66648,4.84027 -0.13087,0.22555 0.3376,0.67598 0.63892,0.61432 0.0981,-0.02 0.80576,-0.8483 1.57268,-1.84054 z m 29.50163,-6.63614 c -0.52482,-1.14635 -1.21833,-1.88448 -2.2131,-2.35548 -0.98056,-0.46427 -1.9785,-0.69184 -1.9785,-0.45119 0,0.0888 -0.0393,0.26407 -0.0874,0.38942 -0.12091,0.3151 0.34362,0.739 0.80982,0.739 0.98962,0 3.04276,1.53985 3.52562,2.6442 0.18743,0.42867 0.23097,0.45846 0.27322,0.18687 0.0276,-0.17769 -0.12068,-0.69646 -0.32961,-1.15282 z m 11.56785,-0.0359 c 1.43417,-0.37355 2.7264,-1.14524 3.94362,-2.35505 0.96744,-0.96155 1.24857,-1.3831 2.14519,-3.21675 0.56751,-1.1606 1.20844,-2.67494 1.42429,-3.36519 1.48496,-4.74878 2.17035,-7.0355 2.37447,-7.9222 1.23875,-5.38123 1.76255,-6.94017 3.58424,-10.66752 1.22764,-2.51186 2.52267,-4.29098 4.76692,-6.54887 0.9808,-0.98676 1.77748,-1.94463 2.0271,-2.43722 0.3634,-0.71714 0.99729,-2.3696 0.99729,-2.5998 0,-0.0467 -0.37031,0.40557 -0.8229,1.00504 -0.4526,0.59944 -1.53204,1.83114 -2.39876,2.7371 -2.66333,2.78389 -3.2521,3.65065 -5.34587,7.86994 -1.53228,3.0878 -2.03659,4.28162 -3.40178,8.05288 -1.54787,4.27589 -3.71877,13.78481 -7.44949,17.34965 -0.9269,0.8486 -2.05465,1.45792 -3.02254,1.63308 -0.35448,0.0642 -1.00884,-0.0148 -1.79842,-0.21712 -0.68265,-0.17487 -1.26357,-0.29556 -1.29094,-0.2682 -0.0994,0.0994 0.81668,0.61188 1.59464,0.89206 0.98385,0.35433 1.49323,0.3654 2.67294,0.0582 z m -10.07458,-2.0737 c 0.3014,-0.3407 2.57731,-4.57585 3.31123,-6.1617 0.63629,-1.37493 0.82684,-2.1919 0.51122,-2.1919 -0.21693,0 -2.49376,4.204 -3.77018,6.96133 -0.39442,0.85202 -0.71713,1.57561 -0.71713,1.60797 0,0.16969 0.45432,0.0223 0.66486,-0.2157 z m -50.331566,-2.80384 c 0.469616,-1.11105 1.635925,-3.63238 2.591798,-5.60296 0.955873,-1.97058 1.737955,-3.61189 1.737955,-3.64735 0,-0.0355 -0.07397,-0.0645 -0.16437,-0.0645 -0.403823,0 -2.036736,2.21818 -2.911206,3.95465 -1.167176,2.3177 -2.427216,6.25412 -2.410292,7.52984 0.0066,0.49541 0.118092,0.28611 1.156115,-2.16971 z m 42.381466,-0.14691 c 0.33023,-1.13595 0.39915,-2.84502 -0.0189,-4.08266 -0.66897,-1.98035 -1.32267,-2.16424 -2.216,-3.09856 -1.5459,-1.11548 -5.37965,-2.942 -7.43084,-2.6978 -0.2804,0.0395 -2.15353,0.37214 -3.20746,0.87371 -1.07918,0.51359 -2.21844,1.57423 -2.92588,2.72395 l -0.48851,0.79395 0.9496,-0.87917 c 1.18996,-1.10169 1.81857,-1.25424 3.36854,-0.81749 0.35257,0.0994 0.7774,0.90122 0.89072,1.68127 l 0.0881,0.60597 1.65701,0.5826 c 0.91136,0.32043 2.21736,0.88935 2.9022,1.26426 1.35941,0.7442 4.32678,2.65436 5.32393,3.42712 0.34513,0.26747 0.67847,0.48826 0.74078,0.49067 0.0623,0.003 0.22737,-0.3881 0.36681,-0.86778 z m 5.07727,-0.57912 c 0.38183,-0.71173 0.87147,-1.57643 1.0881,-1.92156 0.37622,-0.59936 2.8455,-5.50218 2.8455,-5.64979 0,-0.039 -0.33956,-0.24294 -0.75457,-0.45325 l -0.75457,-0.38237 -0.88595,1.75239 c -1.92141,3.8005 -3.4093,6.92931 -3.4093,7.16925 0,0.20197 0.74677,0.72528 1.09813,0.76952 0.0432,0.005 0.39084,-0.57245 0.77266,-1.28419 z m -43.222579,-3.3993 c -56.80881,-144.3947745 -56.80881,-144.3947745 0,0 z m 53.519359,2.16069 c 0.12385,-0.46191 0.23022,-1.48331 0.23636,-2.26979 0.0132,-1.69029 -0.39289,-3.09197 -1.45907,-5.03608 -0.82741,-1.50874 -3.36284,-4.1265 -4.66984,-4.8215 l -0.86282,-0.45879 1.37299,1.30195 c 2.63182,2.49566 3.58921,4.01913 4.59187,7.30688 0.53232,1.7455 0.56908,1.99399 0.50511,3.41443 -0.038,0.84255 -0.04,1.50285 -0.005,1.46732 0.0355,-0.0355 0.16594,-0.44253 0.2898,-0.90442 z m 24.4735,0.26395 c 0.3844,-0.16062 0.62314,-0.40551 0.79403,-0.8145 0.22104,-0.52905 0.2211,-0.6336 5.5e-4,-1.0961 -0.13409,-0.28119 -0.42237,-0.62826 -0.64062,-0.77126 -0.28581,-0.18727 -0.48865,-0.57337 -0.72516,-1.38033 -0.74973,-2.55812 -3.35294,-8.13394 -4.81842,-10.32064 -0.57913,-0.86413 -1.29145,-1.95225 -1.58293,-2.41804 -0.29149,-0.46578 -0.58636,-0.81203 -0.65528,-0.76944 -0.0689,0.0426 -0.2063,0.32289 -0.30531,0.62289 -0.15587,0.47228 -0.13789,0.60461 0.13397,0.9864 0.54263,0.76207 4.26513,8.02402 5.1331,10.01382 1.02882,2.35851 1.13522,2.86332 0.77288,3.66686 -0.3664,0.81253 -0.21711,1.58104 0.40956,2.10836 0.55205,0.46453 0.7332,0.48553 1.48363,0.17198 z m -89.926803,-1.68962 c -1.773821,-1.59245 -2.130947,-2.06884 -2.706734,-3.61057 -0.208447,-0.55814 -0.397175,-0.54582 -0.640584,0.0418 -0.643695,1.55402 0.747256,3.68853 2.714327,4.16533 1.574762,0.3817 1.646927,0.31369 0.632991,-0.59658 z m 5.560614,-17.65688 c -0.647015,-0.81692 -3.101797,-3.09084 -3.104877,-3.53261 -0.0013,-0.18949 -0.06085,-0.43668 -0.132288,-0.54931 -0.138369,-0.21815 -0.702418,1.39645 -0.893584,2.55792 -0.279947,1.70087 -1.456056,6.01661 -2.506071,9.19604 -0.644552,1.95168 -1.171913,3.72959 -1.171913,3.95088 0,0.68015 0.299948,1.25317 1.067834,2.03999 0.861753,0.88302 1.595606,1.36941 2.282739,1.51299 0.641427,0.13403 5.044906,-14.43507 4.45816,-15.1759 z m 90.708949,12.90396 c 0.38827,-0.12726 0.93537,-0.44653 1.21579,-0.70946 0.4265,-0.39992 0.50984,-0.59163 0.50984,-1.17288 0,-0.38215 -0.0999,-0.96096 -0.2221,-1.28627 -0.12215,-0.3253 -0.29423,-1.19472 -0.38239,-1.93204 -0.21758,-1.81964 -0.67147,-2.95564 -1.57961,-3.95343 -0.41255,-0.45327 -0.83235,-1.07596 -0.9329,-1.38378 -0.23534,-0.72045 -2.25492,-2.74965 -2.97223,-2.98638 -0.73619,-0.24297 -2.07842,-0.10677 -2.58413,0.26222 -0.45472,0.33177 -0.56299,0.58145 -0.1901,0.43836 0.15017,-0.0576 0.23532,0.003 0.23532,0.16672 0,0.14136 -0.0969,0.29419 -0.21524,0.33962 -0.11839,0.0455 -0.45039,0.41382 -0.7378,0.81867 -0.2874,0.40484 -0.76804,0.96453 -1.06806,1.24376 -0.6297,0.58605 -0.54514,0.82684 0.1838,0.52339 2.05581,-0.85584 3.96297,-1.4213 4.4718,-1.32584 0.74098,0.13902 1.13051,0.565 1.13051,1.23634 0,0.48794 -0.1016,0.62392 -0.90825,1.21578 -0.49953,0.36652 -1.48785,0.97722 -2.19625,1.35711 -0.7084,0.37989 -1.28802,0.74424 -1.28802,0.80968 0,0.14884 1.69963,-0.23803 2.74533,-0.6249 0.89741,-0.332 2.35934,-0.65465 3.05602,-0.67446 0.68332,-0.0194 1.10117,0.42307 1.10117,1.16612 0,0.52004 -0.11865,0.73803 -0.78552,1.44314 -0.45912,0.48545 -1.33186,1.1372 -2.10037,1.56853 -0.72317,0.40587 -1.44624,0.83748 -1.60683,0.95912 -0.57958,0.43899 0.62115,0.25546 2.15746,-0.32978 0.88443,-0.33691 1.87965,-0.59458 2.49213,-0.64521 0.90266,-0.0746 1.05435,-0.0459 1.32164,0.25059 0.28487,0.31593 0.28761,0.36498 0.0485,0.86642 -0.15108,0.31685 -0.76036,0.9174 -1.50847,1.48689 -0.69025,0.52545 -1.30528,1.0367 -1.36673,1.13612 -0.13753,0.22254 0.92392,0.0807 1.97571,-0.26415 z m -69.73317,-0.35628 c 0.0538,-0.28494 0.20316,-0.55849 0.33186,-0.60787 0.1287,-0.0494 0.8131,0.12711 1.52088,0.39223 0.70778,0.26512 1.43977,0.52389 1.62664,0.57505 0.64924,0.17774 0.55944,-0.25611 -0.20514,-0.99114 -0.99092,-0.95262 -2.62697,-1.63689 -3.74511,-1.56637 l -0.78202,0.0493 -0.58574,1.17656 c -0.32215,0.64712 -0.58687,1.26277 -0.58828,1.36812 -0.002,0.13694 0.32989,0.18167 1.16325,0.15688 l 1.16581,-0.0347 z m 8.50915,-4.93332 c 1.6838,-3.50413 2.86797,-6.17456 2.86414,-6.45893 -9.2e-4,-0.093 -0.50552,0.67807 -1.12059,1.71345 -1.46953,2.47374 -4.10252,7.71681 -3.97715,7.91968 0.0541,0.0877 0.2185,0.1594 0.36513,0.1594 0.19228,0 0.71322,-0.92942 1.86847,-3.3336 z m -19.451273,-0.7472 c 0.59423,-0.55971 1.44668,-1.32159 1.89435,-1.69307 0.44766,-0.37148 0.81393,-0.7421 0.81393,-0.82359 0,-0.60105 -2.7215,0.65647 -3.5018,1.61806 -0.74989,0.92412 -1.3497,2.17687 -1.46446,3.05865 l -0.0969,0.74419 0.63722,-0.94331 c 0.35046,-0.51881 1.1234,-1.40124 1.71762,-1.96093 z m 14.069303,2.11355 c 0.055,-0.21918 1.01254,-2.2477 2.12785,-4.50784 2.22782,-4.51464 2.20735,-4.4074 0.82466,-4.31863 l -0.74382,0.0477 -1.99805,3.93872 c -1.09892,2.1663 -2.01664,4.10354 -2.03938,4.305 -0.0342,0.30305 0.0806,0.41377 0.66461,0.64135 0.94444,0.36801 1.04743,0.35859 1.16413,-0.10636 z m 74.40986,-19.74558 c -1.56862,-0.91909 -4.00291,-1.14654 -5.38467,-0.50313 -0.73507,0.34227 -1.47795,1.03673 -1.47795,1.38161 0,0.0796 0.15689,0.0348 0.34866,-0.0996 0.4943,-0.34623 2.09237,-0.3365 2.22669,0.0135 0.12212,0.31825 0.18751,0.26374 -0.8833,0.73628 -0.82554,0.36431 -1.50875,0.92179 -3.95047,3.22347 -0.8222,0.77505 -1.70374,2.02227 -1.57573,2.2294 0.0428,0.0693 0.42497,0.0849 0.84918,0.0347 0.98953,-0.1172 1.9593,0.12832 3.57129,0.90415 2.1626,1.04084 7.93997,-6.94563 6.2763,-7.92039 z m -82.4189,13.18085 c -9.215353,-3.79644 15.2283,-10.31578 15.51834,-13.98051 0.0478,-0.60466 0.20415,-1.41649 0.34732,-1.80407 0.14318,-0.38758 0.35993,-1.44593 0.48166,-2.35189 0.43171,-3.2128 1.09799,-5.09903 2.58006,-7.304141 1.27112,-1.891238 1.68348,-2.360733 3.17195,-3.611443 2.91483,-2.44924 4.71672,-3.239409 8.51223,-3.732809 l 1.56875,-0.203937 -0.85206,-0.26072 c -3.61539,-1.106263 -5.1548,-1.677479 -7.12743,-2.388771 -0.26024,-0.09384 -1.12712,-0.358518 -1.90366,-0.66756 -1.17072,-0.465928 -1.5747,-0.723977 -2.36517,-1.510809 -0.52432,-0.521896 -1.17489,-1.226771 -1.44571,-1.566385 -0.4884,-0.612482 -0.49505,-0.615071 -0.82119,-0.319924 -0.18083,0.163654 -0.67891,0.769835 -1.10683,1.347065 l -0.77803,1.049517 0.17787,1.508275 c 0.30605,2.595022 -0.16498,4.768928 -1.73638,8.013815 -2.24555,4.636957 -5.68219,8.809647 -9.90953,12.031887 -5.0256,3.83072 -8.125003,7.00967 -9.258183,9.4958 -1.05,2.30366 -0.18493,4.7703 2.07947,5.9293 0.798453,0.40868 2.546213,0.82803 3.514903,0.84334 0.59581,0.009 0.56307,-0.0166 -0.64833,-0.51568 z m 43.47528,-0.0331 c 5.10956,-1.39682 8.72583,-5.03337 9.724,-9.77852 0.27312,-1.29838 0.31051,-4.40479 0.0728,-6.04974 -0.4915,-3.40125 -2.18882,-6.63111 -4.929,-9.379474 -2.33878,-2.345771 -6.5458,-4.642378 -10.34914,-5.64958 -1.09484,-0.289938 -1.70582,-0.335527 -4.55867,-0.340155 -2.73497,-0.0046 -3.45421,0.0428 -4.23563,0.277913 -2.0386,0.613494 -3.12922,1.12502 -4.85956,2.279258 -2.29649,1.531906 -3.38214,2.750636 -4.56482,5.124378 -1.0178,2.04277 -1.32158,3.39504 -1.32158,5.88282 0,3.63386 0.98044,6.36918 3.35482,9.35953 2.91326,3.66903 8.11973,6.88505 13.31349,8.22372 2.63915,0.68023 5.9746,0.70014 8.35329,0.0498 z m -38.04225,-3.10405 c 1.26577,-0.62014 2.45939,-1.05546 4.00032,-1.45892 2.11401,-0.5535 2.29612,-0.57503 4.86313,-0.5749 2.39145,1.3e-4 2.92611,0.053 5.17689,0.51117 1.3805,0.28106 3.00416,0.68022 3.60813,0.887 1.05503,0.36122 1.08279,0.36314 0.70743,0.0489 -0.89292,-0.74758 -3.91311,-1.92376 -6.22978,-2.42613 -1.84047,-0.3991 -4.74537,-0.36319 -6.71393,0.083 -1.68207,0.38126 -3.95208,1.21172 -5.09843,1.8652 -1.04676,0.59671 -2.82579,1.94501 -3.45126,2.61565 l -0.54907,0.58872 0.94125,-0.6279 c 0.51769,-0.34535 1.75308,-1.02565 2.74532,-1.51178 z m 71.42209,1.82518 c -0.27024,-0.71891 -1.17582,-1.90244 -1.74272,-2.27759 -0.34666,-0.22941 -1.05701,-0.56086 -1.57856,-0.73655 -2.18296,-0.73539 -2.41082,-0.11098 -0.26228,0.71872 1.45278,0.56102 2.64509,1.3472 3.21767,2.12166 0.37666,0.50945 0.51715,0.57618 0.36589,0.17376 z m -11.96635,-1.05348 c 0,-0.1811 -1.73918,-1.96637 -1.9156,-1.96637 -0.0563,0 -0.2519,0.20992 -0.43459,0.46649 -0.39188,0.55035 -0.29652,0.83473 0.59155,1.76392 l 0.5574,0.5832 0.60062,-0.33757 c 0.33033,-0.18565 0.60062,-0.41501 0.60062,-0.50967 z m -73.605193,-15.7335 -0.0478,-0.74382 -0.8188,-0.0999 c -1.469909,-0.17941 -2.657144,-1.07372 -3.338756,-2.51499 l -0.436837,-0.92369 -0.463041,0.59274 c -0.717812,0.91888 -1.264642,1.93776 -1.67414,3.11935 -0.206149,0.59484 -0.486829,1.3417 -0.623733,1.65971 -0.136903,0.31799 -0.434441,1.27101 -0.661193,2.11782 -1.34432,5.0203 -1.456,7.38955 -0.418868,8.88612 0.376181,0.54283 1.920554,1.91487 2.115098,1.67383 2.920219,-3.61814 4.749808,-9.02403 6.36803,-13.76713 z m 80.662553,6.54552 c 0.002,-0.8467 0.0238,-0.88938 0.88094,-1.72563 l 0.87891,-0.85745 -0.11015,-1.96095 c -0.0606,-1.07852 -0.15608,-2.30774 -0.2122,-2.73159 l -0.10204,-0.77065 -0.70594,1.77605 c -0.38827,0.97684 -0.85116,2.17075 -1.02865,2.65315 -0.17749,0.48241 -0.58442,1.25712 -0.90428,1.72158 -0.82581,1.19912 -0.83962,1.37361 -0.19352,2.44655 0.30674,0.50939 0.5577,1.07738 0.5577,1.26221 0,0.6426 0.23743,0.56696 0.58626,-0.18678 0.22828,-0.49325 0.35166,-1.06178 0.35297,-1.62649 z m 5.49263,-19.133075 c -2.91545,2.832558 0.55838,1.670876 -0.79755,4.981763 -0.13236,0.401043 -0.15096,1.1967 -0.0648,2.771312 0.0665,1.21483 0.12886,2.6847 0.13864,3.26639 0.01,0.58169 0.096,1.03688 0.0962,1.0821 0.007,1.57145 -0.0577,1.5083 -0.0557,2.21353 0.002,0.5376 0.21134,0.79755 0.74468,0.59477 0.64459,-0.24507 3.46765,-0.28109 4.49693,0.0743 8.34616,2.88219 -1.02688,-18.415334 -4.55838,-14.984215 z m -9.77364,12.868845 c 1.00052,-0.4304 1.50652,-0.95997 1.91627,-2.0055 l 0.32273,-0.82351 -0.89703,0.73065 c -1.37151,1.11712 -2.39684,1.51557 -3.66974,1.42611 -1.31069,-0.0921 -2.05968,-0.53219 -6.69507,-3.93383 -5.95063,-4.366816 -10.56126,-7.0121 -17.12793,-9.826936 -3.44441,-1.476459 -10.17903,-4.099749 -13.88346,-5.407928 -5.74997,-2.030531 -6.18151,-2.262072 -7.08299,-3.800314 -0.42485,-0.724972 -0.54677,-0.796912 -0.81098,-0.478554 -0.4095,0.493415 0.38211,2.404927 1.3629,3.291014 0.80717,0.729229 1.30143,0.982294 3.31512,1.697391 2.99174,1.13667 1.26709,0.447921 7.05939,2.266528 2.11389,0.66457 4.78329,1.445429 5.93201,1.735249 3.66539,0.924786 7.28545,2.552177 10.22614,4.597127 0.99224,0.690002 2.9904,2.017231 4.44036,2.949397 1.44995,0.932167 3.60306,2.357316 4.78469,3.167006 1.18163,0.80967 3.11524,2.13568 4.29691,2.94666 1.18167,0.81099 2.41707,1.57774 2.74531,1.7039 0.84192,0.32357 2.74343,0.20517 3.76537,-0.23446 z m -67.37001,-3.15112 c 0.32341,-0.0898 0.78228,-0.34214 1.01968,-0.56071 l 0.43167,-0.39741 -0.39219,0.10649 c -0.21569,0.0585 -0.85105,0.13804 -1.41187,0.1766 -1.31186,0.0902 -1.72563,0.18072 -1.72563,0.3775 0,0.40042 1.12694,0.56175 2.07834,0.29753 z m 67.35175,-0.17118 c 0.83893,-0.39434 2.13162,-1.89593 2.38638,-2.772 0.60611,-2.084339 0.62866,-8.227959 0.0404,-11.010548 -0.38132,-1.803783 -1.2627,-4.436369 -1.91586,-5.722568 -0.97363,-1.917248 -2.82825,-4.500956 -4.40868,-6.141806 -3.56888,-3.705339 -9.17961,-7.394782 -13.05754,-8.586234 -7.54734,-2.318837 -13.08814,-2.299918 -18.36547,0.06271 -1.37633,0.616181 -4.04985,2.257919 -5.3227,3.268543 -3.13417,2.488488 -5.72595,6.168675 -5.72595,8.130558 0,0.50712 0.13302,1.03438 0.38995,1.545637 0.71532,1.42341 0.92554,1.580793 3.23014,2.418408 3.94463,1.433679 11.61904,3.710584 14.02838,4.162044 1.47738,0.276824 1.64719,0.285292 1.64719,0.08212 0,-0.732253 10.1926,-22.97485 21.92229,-10.555046 1.92898,2.241178 -3.86386,20.763993 -0.68515,23.481722 2.37241,1.92778 4.15412,2.42733 5.83662,1.63646 z m -76.520853,-0.16573 c 0.10353,-0.10354 0.18825,-0.31283 0.18825,-0.46511 0,-0.15227 0.12628,-0.34443 0.28063,-0.42704 0.39854,-0.2133 3.29127,-0.7261 6.229693,-1.10436 1.3805,-0.17771 3.35713,-0.43307 4.39251,-0.56746 1.03537,-0.1344 3.11426,-0.34335 4.61975,-0.46433 2.14658,-0.172498 2.8186,-0.280795 3.11428,-0.50187 0.50179,-0.375189 1.36888,-1.585049 1.23323,-1.720708 -0.0592,-0.05917 -0.8656,-0.0161 -1.7921,0.09578 -0.92649,0.111836 -1.9316,0.230211 -2.23359,0.26307 -0.30199,0.03283 -1.57267,0.1716 -2.82376,0.30832 -1.25108,0.13672 -3.93364,0.524183 -5.96126,0.861017 -3.846903,0.639071 -4.315573,0.728081 -6.723883,1.276831 -1.20915,0.27552 -1.524177,0.29991 -1.783347,0.13805 -0.384767,-0.24029 -0.543661,-0.10386 -0.821997,0.70576 -0.227999,0.66321 -0.09935,1.25607 0.345948,1.59421 0.328983,0.24982 1.488426,0.25506 1.735646,0.008 z m -5.868109,-6.251258 c 0.06467,-0.369364 0.02213,-0.659705 -0.126393,-0.862819 -0.219761,-0.300537 -0.231249,-0.299184 -0.628683,0.07417 -0.473285,0.44462 -0.50756,0.809247 -0.135309,1.439422 0.25564,0.432758 0.283002,0.442086 0.531225,0.181074 0.143937,-0.151353 0.30556,-0.525692 0.35916,-0.831863 z m 3.642759,-0.233522 c 0.50006,-2.122702 0.885851,-3.234781 1.287952,-3.712644 0.483248,-0.574316 1.476078,-1.057985 2.181568,-1.062777 0.40599,-0.0027 0.52571,0.0717 0.60162,0.374128 0.0521,0.207669 0.0233,0.511096 -0.064,0.674282 -0.42476,0.793682 -1.01748,3.968151 -0.74091,3.968151 0.3173,0 0.87303,-0.356003 0.87303,-0.559264 0,-0.371668 0.92539,-3.006216 1.36428,-3.884024 0.49208,-0.984193 1.34995,-1.332075 3.005483,-1.218775 0.29532,0.02021 0.18384,0.793407 -0.430553,2.986179 -0.58791,2.09822 -0.59124,2.597446 -0.0173,2.597446 0.502503,0 0.779883,-0.55449 1.552303,-3.103082 0.31987,-1.055398 0.71915,-2.200829 0.88729,-2.54541 l 0.30572,-0.626517 1.04967,-0.04618 c 1.32177,-0.05816 1.48056,0.13522 1.14784,1.397802 -0.33377,1.266541 -0.88598,4.247827 -0.80232,4.331496 0.0402,0.04024 0.20962,-0.198331 0.37632,-0.530254 0.69982,-1.393458 1.44407,-4.361393 1.44431,-5.759606 1.1e-4,-0.674117 -0.0692,-0.832969 -0.59169,-1.355432 -0.71924,-0.71923 -1.41337,-0.946003 -3.22621,-1.053998 l -1.38646,-0.08258 c -2.448203,-0.14582 -4.333753,0.317383 -6.563343,1.29469 -0.0842,0.03695 -0.43389,0.136071 -0.75989,0.302385 -1.505289,0.767946 -2.845675,3.0954 -2.846208,4.942192 -2.42e-4,0.838319 0.798219,4.060151 0.964911,3.893462 0.07115,-0.07115 0.245156,-0.620902 0.386683,-1.221666 z M 108.8974,94.335981 c 0.54953,-1.699546 0.55385,-1.882505 0.0444,-1.882505 -0.51781,0 -0.86187,0.769859 -1.00204,2.24212 -0.0956,1.004505 -0.0835,1.062933 0.21252,1.019695 0.24375,-0.03557 0.41041,-0.344114 0.74513,-1.37931 z m 3.16416,1.17337 c 0.88934,-0.09829 0.92399,-0.119875 1.21234,-0.754933 0.49345,-1.086793 0.45994,-1.130269 -0.83328,-1.081205 -0.62573,0.02378 -1.28948,0.07627 -1.47499,0.11671 -0.3708,0.08084 -0.6824,0.77636 -0.6824,1.523191 0,0.416553 0.0405,0.452064 0.43142,0.378546 0.23727,-0.04463 0.84338,-0.126661 1.34691,-0.182309 z m 0.72288,-7.530475 c 0.81485,-0.123898 1.56279,-0.31495 1.66213,-0.424555 0.0993,-0.109605 0.87981,-1.041945 1.73441,-2.071857 0.85461,-1.029913 2.34745,-2.827282 3.31742,-3.994153 1.69415,-2.038048 2.20932,-2.903709 2.02064,-3.395387 -0.20916,-0.545056 -1.80032,0.08447 -3.27869,1.29718 -1.03454,0.848624 -1.64968,1.140226 -2.41175,1.143258 -0.33209,0.0013 -0.68954,0.05689 -0.79436,0.123494 -0.1048,0.0666 -0.37363,0.607488 -0.59739,1.201971 -0.57202,1.519708 -0.88309,1.88905 -2.41317,2.865204 -0.74154,0.473087 -1.4365,0.972066 -1.54435,1.108844 -0.11699,0.148359 -0.1961,0.719145 -0.1961,1.414873 v 1.166191 l 0.50985,-0.104886 c 0.28041,-0.05771 1.17653,-0.206269 1.99136,-0.330177 z M 94.203517,86.440084 c 1.90121,-0.934326 3.09762,-1.236119 4.86313,-1.22672 0.86282,0.0046 2.096893,0.07787 2.742383,0.162836 0.64549,0.08497 1.18619,0.09637 1.23005,0.09806 2.09779,0.08054 2.11538,-0.57489 2.51453,-0.902382 0.30018,-0.24629 -0.18082,-0.730615 -1.06634,-1.717451 -0.50125,-0.558609 -1.13676,-1.05742 -1.69885,-1.33344 -0.80556,-0.39558 -1.05952,-0.440506 -2.46676,-0.436376 -1.018553,0.003 -1.871373,0.09785 -2.431573,0.27047 -1.20539,0.371427 -3.55419,1.74649 -4.872472,2.852501 -0.891278,0.747764 -1.091375,0.995116 -1.015238,1.255003 0.244642,0.835065 0.278063,1.971763 0.06575,2.236213 -0.119756,0.149167 0.06464,0.04838 0.409763,-0.223919 0.345125,-0.272315 1.121667,-0.737978 1.725637,-1.034793 z m 5.28128,-7.288191 c 1.165383,-0.05245 1.885553,0.01083 3.112023,0.273423 0.87767,0.187913 1.81733,0.426685 1.81733,0.426685 0.84092,0.158803 1.68182,0.268159 2.52274,-0.823763 2.66805,-2.888815 8.21583,-8.28662 10.35721,-6.437074 l 0.36693,0.958846 -0.10044,-0.85965 c -0.19857,-1.699448 -0.85106,-2.875674 -2.32126,-4.184502 -1.91192,-1.702052 -3.49692,-2.267132 -6.47209,-2.307404 -1.39645,-0.0189 -1.56532,0.04899 -2.03938,0.153941 -0.95456,0.211321 -3.43815,0.872577 -6.21641,3.825223 -0.44951,0.490362 -0.956483,1.167377 -1.126593,1.504478 -0.17012,0.337102 -0.70453,1.212959 -1.18758,1.946351 -1.49136,2.264248 -2.4647,4.107878 -2.78944,5.283583 -0.17112,0.619514 -0.27781,1.1597 -0.2371,1.200415 0.0407,0.04071 0.68687,-0.143401 1.43591,-0.409145 1.05223,-0.373312 1.70664,-0.498686 2.87815,-0.551407 z m 73.496743,-4.140654 c 1.92443,-0.787624 3.26939,-1.837942 4.98482,-3.892795 0.90077,-1.078998 2.84105,-3.921882 2.67671,-3.921882 -0.0386,0 -0.97234,0.928157 -2.07507,2.062571 -2.48192,2.553239 -4.18617,4.059369 -5.78969,5.116622 -0.6794,0.447955 -1.37646,0.92213 -1.54903,1.053722 -0.29878,0.227848 -0.2913,0.234558 0.15687,0.140678 0.25885,-0.05422 0.97677,-0.305733 1.59539,-0.558916 z m -52.9753,-4.941193 c 0.94065,-7.167723 15.64431,-4.812701 18.38648,-11.501615 0.0814,-0.215704 0.24632,-0.858729 0.36651,-1.428946 0.1202,-0.570217 0.3405,-1.475404 0.48956,-2.011526 0.2704,-0.972577 0.2715,-0.973829 0.48972,-0.557345 0.12029,0.229583 0.2414,0.393534 0.26914,0.364335 0.0277,-0.0292 -0.007,-0.888024 -0.0783,-1.908502 -0.15497,-2.23474 -0.58486,-3.318637 -1.57646,-3.974848 l -0.60757,-0.402066 -2.63214,1.039503 c -3.29754,1.302285 -4.06859,1.751458 -8.20122,4.777601 -1.46142,1.070133 -1.60973,1.246438 -1.50398,1.787883 0.096,0.491641 0.0805,0.495616 -0.98122,0.250551 -1.16597,-0.269136 -2.69168,0.219697 -2.69168,0.862403 0,0.103681 0.493,0.433959 1.09558,0.733952 0.60256,0.299994 1.09672,0.592183 1.09812,0.64931 9.2e-4,0.05713 -0.29476,0.154098 -0.65814,0.21549 -0.36338,0.06139 -0.76929,0.167149 -0.90203,0.235015 -0.13274,0.06787 -0.79482,0.200377 -1.47127,0.294469 -1.66549,0.231659 -3.81606,1.263514 -4.85947,2.33159 -0.4156,0.425426 -0.7753,0.907448 -0.79932,1.071161 -0.0496,0.337406 -0.66339,0.731823 -1.95282,1.254722 -0.4866,0.197331 -0.90549,0.457888 -0.93085,0.579014 -0.0288,0.137816 0.23533,0.325934 0.70595,0.502695 0.41362,0.155356 1.45343,0.677937 2.31067,1.161291 1.57543,0.888297 3.01868,2.157903 4.18084,3.677828 0.29455,0.385224 0.56023,0.676654 0.5904,0.647622 0.0302,-0.02903 -0.0313,-0.322241 -0.13656,-0.651578 z M 172.36107,69.8783 c 3.17451,-0.618095 5.16824,-1.671074 7.4352,-3.926874 1.20043,-1.194504 1.62291,-1.73992 2.07344,-2.676746 0.8645,-1.797632 2.06012,-6.298745 2.51339,-9.462081 0.16704,-1.165795 -0.2615,-0.498338 -0.69236,1.078345 -0.74808,2.737582 -2.58399,7.830823 -3.16877,8.790908 -0.62842,1.031755 -1.17631,1.590129 -2.5097,2.557698 -2.8193,2.045831 -5.51185,2.841951 -9.59517,2.837057 -2.4449,-0.0029 -4.08777,-0.313047 -6.60033,-1.245923 -3.60066,-1.336865 -6.37705,-3.069557 -8.16921,-5.098228 -1.51724,-1.717497 -3.0379,-3.891092 -3.29729,-4.713098 -0.14765,-0.467891 -0.28113,-1.638889 -0.3308,-2.902192 -0.0727,-1.850201 -0.0304,-2.405255 0.33516,-4.392508 0.38023,-2.067044 0.70303,-3.451256 0.80486,-3.451256 0.0215,0 0.76916,0.435253 1.66157,0.967229 4.64498,2.768919 9.0441,4.384908 14.4079,5.292647 4.03564,0.682969 5.92605,0.84684 8.62815,0.747934 3.57594,-0.130891 5.16121,-0.45917 7.49153,-1.551335 0.99813,-0.467802 1.16919,-0.647364 1.3544,-1.4217 l 0.10432,-0.43617 -0.82778,0.419557 c -2.45133,1.242446 -5.20614,1.716634 -9.14217,1.573653 -3.59395,-0.130555 -5.9177,-0.509184 -11.19414,-1.823958 -6.24015,-1.55491 -11.26443,-3.912753 -12.87052,-6.040007 -0.35934,-0.475945 -0.71236,-0.865356 -0.78448,-0.865356 -0.21487,0 -0.59511,1.61732 -1.14333,4.863134 -0.44331,2.624581 -0.51689,3.43785 -0.51807,5.725947 -9.1e-4,2.475569 0.0275,2.745655 0.40141,3.765007 0.22154,0.60397 0.8802,1.823811 1.46369,2.710758 2.34909,3.570761 4.76776,5.452005 9.02012,7.01585 4.86354,1.788609 9.49265,2.373615 13.14898,1.661708 z m -19.90334,-4.054397 c -1.94145,-1.961849 -3.07387,-3.439386 -3.96125,-5.168488 l -0.54774,-1.067304 -0.007,0.846356 c -0.005,0.611757 0.21571,1.52492 0.79833,3.294382 0.44333,1.346413 0.88454,2.528997 0.98047,2.627964 0.0959,0.09897 0.95096,0.371051 1.90005,0.604632 0.9491,0.23358 1.83152,0.485782 1.96095,0.560447 0.84771,0.489055 0.45771,-0.100581 -1.12308,-1.697989 z m 10.88703,0.866605 c -0.24968,-0.304489 -0.82205,-2.154738 -0.82205,-2.657361 0,-0.634049 0.51282,-0.586236 1.11916,0.104347 0.36577,0.416581 0.60546,0.549063 0.99338,0.549063 h 0.51129 l 0.17279,-1.137345 c 0.095,-0.62554 0.21412,-1.560909 0.26464,-2.078598 0.0505,-0.517688 0.16642,-1.424384 0.25757,-2.014879 0.0918,-0.594722 0.0368,-1.099759 0.0314,-1.20293 -0.12696,-2.425108 -6.47737,-5.419859 -7.67976,-4.861267 -1.32686,0.616418 -0.72486,3.631821 -0.63858,5.176883 0.11035,1.975752 0.90953,5.615869 1.40025,6.377803 0.21739,0.337532 1.58898,1.045519 3.01309,1.555291 1.4394,0.51525 1.67032,0.546949 1.3768,0.188993 z m -21.07123,-5.299082 c 0.26462,-0.496463 0.74077,-1.811247 1.05812,-2.92174 0.53679,-1.878416 0.57772,-2.172089 0.58734,-4.215334 0.01,-2.088402 -0.0109,-2.23958 -0.42128,-3.078519 -0.44176,-0.902988 -1.58525,-2.333678 -1.86522,-2.333678 -0.17869,0 -0.0645,0.669614 0.29423,1.725628 0.333,0.980221 0.46122,5.614425 0.21046,7.606609 -0.10489,0.833305 -0.425,2.339416 -0.71138,3.346913 l -0.52066,1.831813 0.44364,-0.529516 c 0.24401,-0.291233 0.66015,-0.935713 0.92475,-1.432176 z m 22.68079,-16.392716 0.0785,-2.510004 c 0.0747,-2.389016 0.0936,-2.508909 0.39219,-2.487281 0.17256,0.01249 0.8785,0.104087 1.56875,0.203534 0.69025,0.09944 2.1895,0.159814 3.33167,0.134152 l 2.07666,-0.04666 c 8.58746,-0.457324 10.04238,-2.776014 10.04101,-2.842694 -0.005,-0.282683 -0.9133,-1.775003 -1.76267,-2.898645 -0.84109,-1.112698 -3.01908,-3.22176 -3.91759,-3.793602 -0.95809,-0.609759 -4.48108,-1.726906 -6.83871,-2.168566 -2.36764,-0.443536 -6.468,0.173589 -8.93376,1.344573 -1.46344,0.694985 -3.63777,2.184658 -4.96845,3.403991 -2.39301,2.192757 -5.26478,7.352557 -5.26478,9.459377 0,0.593263 0.88309,1.696057 1.9387,2.421023 2.77247,1.904057 11.55257,4.225203 11.55257,4.225203 z m 22.04093,121.26415 c -150.870699,-171.7564945 -150.870699,-171.7564945 0,0 z"
       id="path1"
       sodipodi:nodetypes="sssssssssssssssssssssssssssssssssssccsssssssssssssssssssscssssssssssscsssssscsssssssssssssssssssssssccssscsssssssssscsscssscsssssssscssssssssssssssssccssscsssssssccssssssssssssssssssssssssscccssssssssssssssssssssccssssssssscsssssccsssssssssssssssssccsssssssssscssscssscsccssscsssssssssssssssssssssssscssssssssssssssscssssssssssssscccssssssssssssscssssssscssssssssssscsssssssscsssssssssssssssssscsssssssssscsssssssssssssssssssssscsscssscssscsssssscsscssssssscssscccssssssscssssssssssccscssssssccsssssssssssssssssssscsssssscssssssssssscssscsssssssscssscssccscssscccsscsssscssssssssscssssssscssssssccsssssccsssssssssssscscsscsccsssssssssscssscsscsssssssccccscssssssccscsssssssccssssssssscssssssscccccsscssssssssssssssccscssssssccssssssccccssscccsssssssssssscsscsssscssssccssscsssscsssssssssscsssssccsssssssscsssssssssscccssssssssssssscsssssscssssccscsssssscsssssssssssccscsssssssssccsssssscsssssscssssccccsssscccssscscssssssccsscsscsscssscsssccssssssssccss"
       inkscape:label="path1"
       inkscape:transform-center-x="-74.701847"
       inkscape:transform-center-y="81.923763" /></g></svg>
