<?xml version="1.0" encoding="UTF-8" standalone="no"?>
<!-- Created with Inkscape (http://www.inkscape.org/) -->

<svg
   width="107.96473mm"
   height="72mm"
   viewBox="0 0 107.96473 71.999999"
   version="1.1"
   id="svg1"
   inkscape:version="1.4.2 (f4327f4, 2025-05-13)"
   sodipodi:docname="cafe-racer-colour.svg"
   xmlns:inkscape="http://www.inkscape.org/namespaces/inkscape"
   xmlns:sodipodi="http://sodipodi.sourceforge.net/DTD/sodipodi-0.dtd"
   xmlns:xlink="http://www.w3.org/1999/xlink"
   xmlns="http://www.w3.org/2000/svg"
   xmlns:svg="http://www.w3.org/2000/svg">
  <sodipodi:namedview
     id="namedview1"
     pagecolor="#ffffff"
     bordercolor="#000000"
     borderopacity="0.25"
     inkscape:showpageshadow="2"
     inkscape:pageopacity="0.0"
     inkscape:pagecheckerboard="0"
     inkscape:deskcolor="#d1d1d1"
     inkscape:document-units="mm"
     inkscape:zoom="2.1442755"
     inkscape:cx="182.34597"
     inkscape:cy="79.980394"
     inkscape:window-width="1920"
     inkscape:window-height="1111"
     inkscape:window-x="-9"
     inkscape:window-y="-9"
     inkscape:window-maximized="1"
     inkscape:current-layer="g1692" />
  <defs
     id="defs1">
    <filter
       style="color-interpolation-filters:sRGB"
       inkscape:label="Blur"
       id="filter1691"
       x="-0.024040951"
       y="-0.011760869"
       width="1.0480819"
       height="1.0235217">
      <feGaussianBlur
         stdDeviation="3.9 0.51"
         result="blur"
         id="feGaussianBlur1691" />
    </filter>
    <linearGradient
       inkscape:collect="always"
       xlink:href="#linearGradient1691"
       id="linearGradient1692"
       x1="406.25262"
       y1="127.99464"
       x2="406.25262"
       y2="210.39539"
       gradientUnits="userSpaceOnUse"
       gradientTransform="translate(0,82.147557)" />
    <linearGradient
       id="linearGradient1691"
       inkscape:collect="always">
      <stop
         style="stop-color:#ff0000;stop-opacity:1;"
         offset="0"
         id="stop1691" />
      <stop
         style="stop-color:#ff0000;stop-opacity:0;"
         offset="1"
         id="stop1692" />
    </linearGradient>
  </defs>
  <g
     inkscape:label="Layer 1"
     inkscape:groupmode="layer"
     id="layer1">
    <g
       id="g1692"
       transform="matrix(0.26458333,0,0,0.26458333,-60.14571,-27.374237)">
      <path
         style="fill:#000000;stroke:none;stroke-width:3;stroke-dasharray:none;filter:url(#filter1691)"
         d="m 359.71161,290.19648 c -1.83478,-1.83477 -1.78949,-3.59791 0.1492,-5.80947 2.32704,-2.65455 15.11646,-6.48966 26.54028,-7.95852 7.97175,-1.02499 32.6176,-1.02432 53,10e-4 37.95054,1.9099 80.86982,0.24153 109.71554,-4.26489 9.80465,-1.53173 24.55945,-4.8947 29.91325,-6.81794 14.74045,-5.2952 26.03947,-13.82387 30.27905,-22.85508 2.31757,-4.93691 2.37105,-12.48943 0.12918,-18.2432 -4.4423,-11.4012 -21.10127,-19.8599 -46.11499,-23.41519 -22.17359,-3.15161 -71.41846,0.66392 -104.00503,8.05839 l -4.41633,1.00214 -0.29858,5.15781 c -0.44944,7.76369 -3.3436,12.36975 -9.9663,15.86139 -2.13839,1.12741 16.7338,23.44442 22.23765,26.29679 1.80861,0.93731 3.84371,1.28187 7.57133,1.28187 4.57429,0 5.05377,0.11982 4.66842,1.16666 -0.23621,0.64167 -1.2157,3.19167 -2.17665,5.66667 l -1.74719,4.5 -17.06134,-0.0282 -17.06134,-0.0282 -4.66667,-8.06324 c -6.55225,-11.32123 -16.00306,-25.57349 -17.78623,-26.82248 -2.05479,-1.43923 -5.31021,-1.96152 -8.88488,-1.42546 l -2.99555,0.44921 v 14.62582 14.62581 h 8.33333 8.33333 v 1.91667 c 0,1.05417 -0.1875,2.85417 -0.41666,4 l -0.41667,2.08333 h -23.25 -23.25 v -4 -4 h 3.66667 3.66666 v -15.6344 -15.63441 l -6.5,2.68982 c -3.575,1.4794 -9.2,3.98911 -12.5,5.57714 -5.96705,2.87145 -5.9851,2.88762 -3.28766,2.94458 4.34902,0.0918 9.34009,-1.71957 11.84516,-4.29896 1.23412,-1.27074 2.58856,-2.31043 3.00985,-2.31043 1.34416,0 0.82302,4.11887 -0.89126,7.04406 -2.55987,4.36809 -6.38364,5.95594 -14.34275,5.95594 -3.53046,0 -7.53252,-0.39796 -9.04298,-0.89922 l -2.70965,-0.89922 -12.04491,6.70395 c -29.95165,16.67049 -41.58904,21.09201 -57.5358,21.86018 -13.14924,0.63341 -22.18758,-2.37161 -30.57044,-10.16391 -12.98239,-12.0678 -15.71792,-28.95348 -7.44163,-45.93512 7.61228,-15.61916 21.05685,-24.01654 39.74399,-24.82379 8.29423,-0.35829 14.56042,0.33033 20.47496,2.25009 2.96906,0.96371 3.3008,0.95591 4.47334,-0.10523 1.73767,-1.57256 5.00855,-0.87673 8.18448,1.74115 3.98189,3.2822 4.77015,5.3755 3.78044,10.03921 -0.8568,4.03744 -1.28636,4.5358 -2.57318,2.98527 -1.22442,-1.47532 -8.35544,-4.40853 -13.22792,-5.44103 -2.48089,-0.52572 -7.37267,-0.96106 -10.87064,-0.96742 -17.50757,-0.0319 -27.63637,7.83394 -30.03142,23.32175 -2.16844,14.02247 1.89192,25.99582 10.84252,31.9728 11.3593,7.58544 23.85849,6.13486 47.88217,-5.55692 l 7,-3.40675 -5.12139,-0.19846 -5.12139,-0.19846 1.22403,-3.5577 c 2.14433,-6.23261 3.3226,-16.94587 2.2878,-20.80151 -0.30251,-1.12716 -1.06214,-1.49454 -3.74797,-1.81264 -1.85271,-0.21942 -3.47266,-0.50305 -3.5999,-0.63028 -0.12723,-0.12723 0.12923,-1.18655 0.5699,-2.35404 0.53576,-1.41938 1.24981,-2.12572 2.15508,-2.13181 3.36886,-0.0227 4.1475,-0.70166 5.21738,-4.54983 2.20531,-7.93203 6.69051,-11.60878 14.10916,-11.56598 6.34256,0.0366 11.974,3.23423 10.41815,5.91564 -1.98962,3.42897 -2.36759,3.62357 -4.94568,2.54637 -1.32129,-0.55207 -3.59021,-1.00376 -5.04204,-1.00376 -3.22355,0 -5.40313,2.32216 -5.40313,5.75657 v 2.24343 h 4.42056 4.42056 l -0.40534,2.49781 c -0.50247,3.09635 -1.89977,4.16886 -5.43136,4.16886 h -2.74075 l -0.16212,9.33333 -0.16212,9.33333 h 5.66558 c 3.11607,0 6.44663,-0.35586 7.40124,-0.79082 1.6074,-0.73238 1.69593,-0.99101 1.19804,-3.5 -1.57723,-7.94796 0.72188,-16.09993 6.05628,-21.47381 3.89025,-3.91903 7.56362,-5.28998 12.3992,-4.62755 6.03094,0.82618 11.9087,5.23999 13.00759,9.76782 0.40022,1.64909 -0.034,1.92467 -12.39423,7.86541 -8.39786,4.0363 -12.58314,6.38228 -12.15318,6.81224 0.42996,0.42996 4.42517,-1.04941 11.60126,-4.29578 6.02,-2.72337 13.04546,-5.83465 15.61212,-6.91396 l 4.66667,-1.96236 0.18138,-12.4406 0.18137,-12.44059 h -3.96018 c -2.1781,0 -4.44582,-0.18635 -5.03937,-0.41412 -1.37763,-0.52865 -3.02987,-3.70257 -3.02987,-5.82034 0,-1.61234 0.0994,-1.63961 7.5,-2.05684 4.125,-0.23256 19.51487,-0.48715 34.1997,-0.56576 l 26.69971,-0.14294 3.93832,2.00693 c 2.51075,1.27944 4.77115,3.09186 6.23586,5 1.26364,1.64619 2.62652,2.9491 3.02863,2.89536 0.40212,-0.0537 6.13112,-1.46842 12.73112,-3.14373 19.77882,-5.02055 35.17645,-7.96755 53.33333,-10.20765 11.89123,-1.46708 42.63509,-1.66042 50.66667,-0.31864 27.01243,4.5128 43.89867,14.0787 51.94354,29.42551 7.67165,14.63484 5.19473,27.88405 -7.60484,40.67878 -12.56701,12.56225 -27.86593,18.01607 -63.38255,22.59487 -22.31988,2.87747 -38.56031,3.71157 -72.28949,3.71272 -25.92695,9e-4 -34.78348,-0.24035 -46.66666,-1.27116 -17.77921,-1.54225 -43.82478,-1.81184 -48.33334,-0.50027 -1.65,0.48 -6.3,2.49125 -10.33333,4.46945 -9.44031,4.63012 -11.08892,4.96285 -13.35615,2.69562 z m -0.74123,-62.04288 c 3.53689,-1.6528 6.43071,-3.29588 6.43071,-3.65129 0,-0.35542 -0.75581,-1.14144 -1.67958,-1.74671 -3.28714,-2.15383 -8.35144,-0.0101 -10.71709,4.53665 -0.86142,1.65563 -1.26209,3.86644 -0.70071,3.86644 0.12977,0 3.12977,-1.35229 6.66667,-3.00509 z m 67.80355,-4.79711 c 2.10057,-1.76752 4.40063,-5.97988 3.66619,-6.71432 -0.37014,-0.37014 -17.3976,4.5612 -21.53903,6.23794 -4.19915,1.70011 -2.47732,2.27858 6.78219,2.27858 8.75227,0 8.99589,-0.0396 11.09065,-1.8022 z m -7.76939,-10.59896 11.0273,-3.7345 -0.96872,-1.87331 c -2.33746,-4.52014 -6.70122,-6.13299 -15.82629,-5.84941 l -6.16907,0.19172 -0.1885,7.5 c -0.11319,4.50368 0.0685,7.5 0.45474,7.5 0.35378,0 5.60552,-1.68053 11.67054,-3.7345 z m -139.66107,39.76401 c -6.20354,-1.87998 -8.87472,-7.5787 -6.36636,-13.58205 1.38584,-3.31678 4.38394,-5.39395 10.16823,-7.04485 2.89067,-0.82502 5.80208,-1.90179 6.4698,-2.39281 1.13215,-0.83252 1.14257,-1.03099 0.15454,-2.94162 -0.59462,-1.14988 -1.79816,-2.23426 -2.74296,-2.47139 -2.32939,-0.58464 -6.98136,1.32192 -11.02564,4.51874 -3.86294,3.05348 -5.26665,2.95305 -5.26665,-0.37679 0,-3.26911 2.39782,-5.77682 7.98702,-8.35305 6.08569,-2.80508 12.00251,-3.84255 15.85506,-2.78006 2.93751,0.81012 6.9518,3.85527 8.33025,6.31913 0.43342,0.77471 0.94696,5.20219 1.14119,9.83884 0.29935,7.14616 0.5534,8.65152 1.66786,9.88275 0.85064,0.93979 1.85075,1.35001 2.83333,1.16218 1.98152,-0.37879 1.91598,0.2836 -0.28713,2.90185 -3.62484,4.30787 -9.95521,5.77984 -14.06939,3.2715 -2.16576,-1.32042 -2.24313,-1.32235 -4,-0.0995 -3.5751,2.48845 -7.29412,3.22447 -10.84915,2.14711 z m 10.68123,-7.53934 c 1.50128,-0.76146 1.61023,-1.14985 1.44611,-5.15518 -0.0976,-2.38241 -0.28064,-4.4348 -0.4067,-4.56087 -0.48775,-0.48775 -3.09386,0.72733 -4.99995,2.33121 -1.48357,1.24834 -1.9964,2.25179 -1.9964,3.90631 0,3.76726 2.50439,5.22969 5.95694,3.47853 z m 176.37639,2.69402 c -3.51528,-2.02694 -5.18839,-5.26522 -4.70374,-9.10406 0.74845,-5.92845 2.85402,-7.746 12.6496,-10.91925 5.42541,-1.75755 6.46473,-2.92622 4.82623,-5.42689 -2.11303,-3.22488 -7.78377,-1.955 -14.56414,3.26144 -3.07508,2.36579 -3.1375,2.38187 -3.87772,0.99876 -2.34821,-4.38766 2.94237,-9.43147 12.94217,-12.33849 5.9142,-1.71931 11.6433,-1.16256 14.86948,1.445 4.45418,3.60009 5.1887,5.56745 5.21189,13.9598 0.0231,8.33854 0.97288,10.9395 3.99493,10.9395 2.01611,0 2.07017,0.62101 0.25495,2.92869 -3.23677,4.11489 -11.33142,5.85505 -14.66796,3.15328 -1.52427,-1.23428 -1.58069,-1.22797 -4.13415,0.46183 -3.70363,2.45094 -9.18591,2.7252 -12.80154,0.64039 z m 13.7105,-6.54098 c 1.07075,-0.57305 1.2895,-1.42126 1.2895,-5 0,-4.04048 -0.0949,-4.30988 -1.51833,-4.30988 -2.8628,0 -6.42425,3.23989 -6.46047,5.87716 -0.0506,3.68687 3.14768,5.32813 6.6893,3.43272 z m 34.58988,6.4488 c -8.42197,-2.27142 -13.5398,-8.86498 -13.52532,-17.42535 0.019,-11.23257 9.894,-19.92352 20.194,-17.77267 4.39045,0.91682 8.00978,3.65491 9.2955,7.03222 0.87051,2.28666 0.83418,2.54942 -0.55722,4.0305 -2.43001,2.58663 -3.69194,2.51048 -6.6632,-0.40209 -2.29505,-2.24972 -3.04801,-2.60594 -5.13393,-2.42883 -4.93344,0.41887 -7.12152,7.41173 -4.12046,13.16851 3.07004,5.88908 8.33987,7.37091 13.57125,3.81609 3.10142,-2.10747 4.15346,-1.52195 4.41723,2.45845 0.14675,2.21462 -0.14798,2.83452 -2.13733,4.49543 -2.42999,2.02879 -7.70709,3.96662 -10.59523,3.89073 -0.94178,-0.0247 -3.07717,-0.41309 -4.74529,-0.86299 z m 30.25056,-0.45493 c -7.84475,-1.55114 -11.4426,-6.57195 -10.67732,-14.9002 0.50918,-5.54128 1.44417,-8.40131 3.97767,-12.16732 3.18891,-4.74026 6.91997,-7.08638 11.83492,-7.4419 6.72816,-0.48667 12.4071,2.40238 14.71624,7.4866 1.73623,3.82281 1.58737,4.76667 -0.90245,5.72188 -1.19166,0.45719 -6.29166,2.79477 -11.33333,5.19464 -10.05741,4.78739 -10.62435,5.45747 -7.11552,8.40995 1.54452,1.29963 2.79534,1.72593 5.06406,1.72593 4.86476,0 10.27198,-1.88794 12.67336,-4.42493 3.89012,-4.10982 5.50198,-2.14875 2.91579,3.54751 -2.68869,5.92203 -11.46578,8.76338 -21.15342,6.84784 z m 4.01835,-20.97551 c 3.53689,-1.6528 6.43071,-3.3928 6.43071,-3.86666 0,-1.55056 -1.55332,-2.46158 -4.19708,-2.46158 -4.08765,0 -7.20715,2.78844 -8.76339,7.83333 -0.25449,0.825 -0.33632,1.5 -0.18183,1.5 0.15448,0 3.17469,-1.35229 6.71159,-3.00509 z m 23.76405,19.16227 c -3.54569,-1.17419 -4.40735,-4.44237 -1.33334,-5.05718 l 2,-0.4 0.006,-6.51666 c 0.003,-3.58417 0.19688,-8.1078 0.43044,-10.05251 l 0.42464,-3.53585 -3.5058,0.46506 c -3.46968,0.46027 -3.50079,0.44862 -3.02048,-1.13082 1.25457,-4.12547 4.96057,-5.91912 12.24316,-5.9255 3.97076,-0.003 4.22105,0.0856 3.88197,1.38228 -0.28822,1.10218 -0.1335,1.28913 0.75558,0.91297 2.85654,-1.20856 7.9525,-1.10125 10.96403,0.2309 3.28554,1.45335 4.90052,3.36944 5.5416,6.57483 0.37414,1.87071 0.20426,2.11587 -2.10418,3.0366 -2.42156,0.96584 -2.56066,0.94426 -3.89731,-0.60475 -1.53779,-1.78212 -5.31902,-2.88897 -8.07167,-2.36277 -3.12856,0.59806 -4.52666,7.08793 -3.22419,14.96634 l 0.40892,2.47345 5.08375,0.19322 c 4.96323,0.18863 5.08864,0.23561 5.29036,1.98171 0.13849,1.19871 -0.19127,1.99406 -1,2.41189 -1.30932,0.67645 -19.23817,1.49828 -20.87328,0.95679 z M 351.04968,211.32673 c 0.25288,-1.00759 0.57889,-1.95107 0.72446,-2.09663 0.41382,-0.41383 17.93177,-5.25683 18.1934,-5.02974 0.12821,0.11128 -0.10879,1.2383 -0.52667,2.50448 -0.75404,2.28474 -0.82242,2.31783 -9.04895,4.378 -4.55904,1.14172 -8.62956,2.07585 -9.0456,2.07585 -0.49217,0 -0.59581,-0.64001 -0.29664,-1.83196 z"
         id="path1691"
         sodipodi:nodetypes="csscsssssscsssssscccssscccccsscccccccccsssssssscssssssssssscssscccsssssssssssscccsscccsssssssssscccssssscsssssssssssssccsssssssssssscsscssssssssssssssssssssssssssssssssssssssssssssssssssssssssssssssssssssssssssssssssccscsscsssssssscssssssssssss" />
      <path
         style="fill:url(#linearGradient1692);fill-opacity:1;stroke:#000000;stroke-width:3;stroke-dasharray:none"
         d="m 355.71161,289.81881 c -1.83478,-1.83477 -1.78949,-3.59791 0.1492,-5.80947 2.32704,-2.65455 15.11646,-6.48966 26.54028,-7.95852 7.97175,-1.02499 32.6176,-1.02432 53,0.001 37.95054,1.9099 80.86982,0.24153 109.71554,-4.26489 9.80465,-1.53173 24.55945,-4.8947 29.91325,-6.81794 14.74045,-5.2952 26.03947,-13.82387 30.27905,-22.85508 2.31757,-4.93691 2.37105,-12.48943 0.12918,-18.2432 -4.4423,-11.4012 -21.10127,-19.8599 -46.11499,-23.41519 -22.17359,-3.15161 -71.41846,0.66392 -104.00503,8.05839 l -4.41633,1.00214 -0.29858,5.15781 c -0.44944,7.76369 -3.3436,12.36975 -9.9663,15.86139 -2.13839,1.12741 16.7338,23.44442 22.23765,26.29679 1.80861,0.93731 3.84371,1.28187 7.57133,1.28187 4.57429,0 5.05377,0.11982 4.66842,1.16666 -0.23621,0.64167 -1.2157,3.19167 -2.17665,5.66667 l -1.74719,4.5 -17.06134,-0.0282 -17.06134,-0.0282 -4.66667,-8.06324 c -6.55225,-11.32123 -16.00306,-25.57349 -17.78623,-26.82248 -2.05479,-1.43923 -5.31021,-1.96152 -8.88488,-1.42546 l -2.99555,0.44921 v 14.62582 14.62581 h 8.33333 8.33333 v 1.91667 c 0,1.05417 -0.1875,2.85417 -0.41666,4 l -0.41667,2.08333 h -23.25 -23.25 v -4 -4 h 3.66667 3.66666 v -15.6344 -15.63441 l -6.5,2.68982 c -3.575,1.4794 -9.2,3.98911 -12.5,5.57714 -5.96705,2.87145 -5.9851,2.88762 -3.28766,2.94458 4.34902,0.0918 9.34009,-1.71957 11.84516,-4.29896 1.23412,-1.27074 2.58856,-2.31043 3.00985,-2.31043 1.34416,0 0.82302,4.11887 -0.89126,7.04406 -2.55987,4.36809 -6.38364,5.95594 -14.34275,5.95594 -3.53046,0 -7.53252,-0.39796 -9.04298,-0.89922 l -2.70965,-0.89922 -12.04491,6.70395 c -29.95165,16.67049 -41.58904,21.09201 -57.5358,21.86018 -13.14924,0.63341 -22.18758,-2.37161 -30.57044,-10.16391 -12.98239,-12.0678 -15.71792,-28.95348 -7.44163,-45.93512 7.61228,-15.61916 21.05685,-24.01654 39.74399,-24.82379 8.29423,-0.35829 14.56042,0.33033 20.47496,2.25009 2.96906,0.96371 3.3008,0.95591 4.47334,-0.10523 1.73767,-1.57256 5.00855,-0.87673 8.18448,1.74115 3.98189,3.2822 4.77015,5.3755 3.78044,10.03921 -0.8568,4.03744 -1.28636,4.5358 -2.57318,2.98527 -1.22442,-1.47532 -8.35544,-4.40853 -13.22792,-5.44103 -2.48089,-0.52572 -7.37267,-0.96106 -10.87064,-0.96742 -17.50757,-0.0319 -27.63637,7.83394 -30.03142,23.32175 -2.16844,14.02247 1.89192,25.99582 10.84252,31.9728 11.3593,7.58544 23.85849,6.13486 47.88217,-5.55692 l 7,-3.40675 -5.12139,-0.19846 -5.12139,-0.19846 1.22403,-3.5577 c 2.14433,-6.23261 3.3226,-16.94587 2.2878,-20.80151 -0.30251,-1.12716 -1.06214,-1.49454 -3.74797,-1.81264 -1.85271,-0.21942 -3.47266,-0.50305 -3.5999,-0.63028 -0.12723,-0.12723 0.12923,-1.18655 0.5699,-2.35404 0.53576,-1.41938 1.24981,-2.12572 2.15508,-2.13181 3.36886,-0.0227 4.1475,-0.70166 5.21738,-4.54983 2.20531,-7.93203 6.69051,-11.60878 14.10916,-11.56598 6.34256,0.0366 11.974,3.23423 10.41815,5.91564 -1.98962,3.42897 -2.36759,3.62357 -4.94568,2.54637 -1.32129,-0.55207 -3.59021,-1.00376 -5.04204,-1.00376 -3.22355,0 -5.40313,2.32216 -5.40313,5.75657 v 2.24343 h 4.42056 4.42056 l -0.40534,2.49781 c -0.50247,3.09635 -1.89977,4.16886 -5.43136,4.16886 h -2.74075 l -0.16212,9.33333 -0.16212,9.33333 h 5.66558 c 3.11607,0 6.44663,-0.35586 7.40124,-0.79082 1.6074,-0.73238 1.69593,-0.99101 1.19804,-3.5 -1.57723,-7.94796 0.72188,-16.09993 6.05628,-21.47381 3.89025,-3.91903 7.56362,-5.28998 12.3992,-4.62755 6.03094,0.82618 11.9087,5.23999 13.00759,9.76782 0.40022,1.64909 -0.034,1.92467 -12.39423,7.86541 -8.39786,4.0363 -12.58314,6.38228 -12.15318,6.81224 0.42996,0.42996 4.42517,-1.04941 11.60126,-4.29578 6.02,-2.72337 13.04546,-5.83465 15.61212,-6.91396 l 4.66667,-1.96236 0.18138,-12.4406 0.18137,-12.44059 h -3.96018 c -2.1781,0 -4.44582,-0.18635 -5.03937,-0.41412 -1.37763,-0.52865 -3.02987,-3.70257 -3.02987,-5.82034 0,-1.61234 0.0994,-1.63961 7.5,-2.05684 4.125,-0.23256 19.51487,-0.48715 34.1997,-0.56576 l 26.69971,-0.14294 3.93832,2.00693 c 2.51075,1.27944 4.77115,3.09186 6.23586,5 1.26364,1.64619 2.62652,2.9491 3.02863,2.89536 0.40212,-0.0537 6.13112,-1.46842 12.73112,-3.14373 19.77882,-5.02055 35.17645,-7.96755 53.33333,-10.20765 11.89123,-1.46708 42.63509,-1.66042 50.66667,-0.31864 27.01243,4.5128 43.89867,14.0787 51.94354,29.42551 7.67165,14.63484 5.19473,27.88405 -7.60484,40.67878 -12.56701,12.56225 -27.86593,18.01607 -63.38255,22.59487 -22.31988,2.87747 -38.56031,3.71157 -72.28949,3.71272 -25.92695,9e-4 -34.78348,-0.24035 -46.66666,-1.27116 -17.77921,-1.54225 -43.82478,-1.81184 -48.33334,-0.50027 -1.65,0.48 -6.3,2.49125 -10.33333,4.46945 -9.44031,4.63012 -11.08892,4.96285 -13.35615,2.69562 z m -0.74123,-62.04288 c 3.53689,-1.6528 6.43071,-3.29588 6.43071,-3.65129 0,-0.35542 -0.75581,-1.14144 -1.67958,-1.74671 -3.28714,-2.15383 -8.35144,-0.0101 -10.71709,4.53665 -0.86142,1.65563 -1.26209,3.86644 -0.70071,3.86644 0.12977,0 3.12977,-1.35229 6.66667,-3.00509 z m 67.80355,-4.79711 c 2.10057,-1.76752 4.40063,-5.97988 3.66619,-6.71432 -0.37014,-0.37014 -17.3976,4.5612 -21.53903,6.23794 -4.19915,1.70011 -2.47732,2.27858 6.78219,2.27858 8.75227,0 8.99589,-0.0396 11.09065,-1.8022 z m -7.76939,-10.59896 11.0273,-3.7345 -0.96872,-1.87331 c -2.33746,-4.52014 -6.70122,-6.13299 -15.82629,-5.84941 l -6.16907,0.19172 -0.1885,7.5 c -0.11319,4.50368 0.0685,7.5 0.45474,7.5 0.35378,0 5.60552,-1.68053 11.67054,-3.7345 z m -139.66107,39.76401 c -6.20354,-1.87998 -8.87472,-7.5787 -6.36636,-13.58205 1.38584,-3.31678 4.38394,-5.39395 10.16823,-7.04485 2.89067,-0.82502 5.80208,-1.90179 6.4698,-2.39281 1.13215,-0.83252 1.14257,-1.03099 0.15454,-2.94162 -0.59462,-1.14988 -1.79816,-2.23426 -2.74296,-2.47139 -2.32939,-0.58464 -6.98136,1.32192 -11.02564,4.51874 -3.86294,3.05348 -5.26665,2.95305 -5.26665,-0.37679 0,-3.26911 2.39782,-5.77682 7.98702,-8.35305 6.08569,-2.80508 12.00251,-3.84255 15.85506,-2.78006 2.93751,0.81012 6.9518,3.85527 8.33025,6.31913 0.43342,0.77471 0.94696,5.20219 1.14119,9.83884 0.29935,7.14616 0.5534,8.65152 1.66786,9.88275 0.85064,0.93979 1.85075,1.35001 2.83333,1.16218 1.98152,-0.37879 1.91598,0.2836 -0.28713,2.90185 -3.62484,4.30787 -9.95521,5.77984 -14.06939,3.2715 -2.16576,-1.32042 -2.24313,-1.32235 -4,-0.0995 -3.5751,2.48845 -7.29412,3.22447 -10.84915,2.14711 z m 10.68123,-7.53934 c 1.50128,-0.76146 1.61023,-1.14985 1.44611,-5.15518 -0.0976,-2.38241 -0.28064,-4.4348 -0.4067,-4.56087 -0.48775,-0.48775 -3.09386,0.72733 -4.99995,2.33121 -1.48357,1.24834 -1.9964,2.25179 -1.9964,3.90631 0,3.76726 2.50439,5.22969 5.95694,3.47853 z m 176.37639,2.69402 c -3.51528,-2.02694 -5.18839,-5.26522 -4.70374,-9.10406 0.74845,-5.92845 2.85402,-7.746 12.6496,-10.91925 5.42541,-1.75755 6.46473,-2.92622 4.82623,-5.42689 -2.11303,-3.22488 -7.78377,-1.955 -14.56414,3.26144 -3.07508,2.36579 -3.1375,2.38187 -3.87772,0.99876 -2.34821,-4.38766 2.94237,-9.43147 12.94217,-12.33849 5.9142,-1.71931 11.6433,-1.16256 14.86948,1.445 4.45418,3.60009 5.1887,5.56745 5.21189,13.9598 0.0231,8.33854 0.97288,10.9395 3.99493,10.9395 2.01611,0 2.07017,0.62101 0.25495,2.92869 -3.23677,4.11489 -11.33142,5.85505 -14.66796,3.15328 -1.52427,-1.23428 -1.58069,-1.22797 -4.13415,0.46183 -3.70363,2.45094 -9.18591,2.7252 -12.80154,0.64039 z m 13.7105,-6.54098 c 1.07075,-0.57305 1.2895,-1.42126 1.2895,-5 0,-4.04048 -0.0949,-4.30988 -1.51833,-4.30988 -2.8628,0 -6.42425,3.23989 -6.46047,5.87716 -0.0506,3.68687 3.14768,5.32813 6.6893,3.43272 z m 34.58988,6.4488 c -8.42197,-2.27142 -13.5398,-8.86498 -13.52532,-17.42535 0.019,-11.23257 9.894,-19.92352 20.194,-17.77267 4.39045,0.91682 8.00978,3.65491 9.2955,7.03222 0.87051,2.28666 0.83418,2.54942 -0.55722,4.0305 -2.43001,2.58663 -3.69194,2.51048 -6.6632,-0.40209 -2.29505,-2.24972 -3.04801,-2.60594 -5.13393,-2.42883 -4.93344,0.41887 -7.12152,7.41173 -4.12046,13.16851 3.07004,5.88908 8.33987,7.37091 13.57125,3.81609 3.10142,-2.10747 4.15346,-1.52195 4.41723,2.45845 0.14675,2.21462 -0.14798,2.83452 -2.13733,4.49543 -2.42999,2.02879 -7.70709,3.96662 -10.59523,3.89073 -0.94178,-0.0247 -3.07717,-0.41309 -4.74529,-0.86299 z m 30.25056,-0.45493 c -7.84475,-1.55114 -11.4426,-6.57195 -10.67732,-14.9002 0.50918,-5.54128 1.44417,-8.40131 3.97767,-12.16732 3.18891,-4.74026 6.91997,-7.08638 11.83492,-7.4419 6.72816,-0.48667 12.4071,2.40238 14.71624,7.4866 1.73623,3.82281 1.58737,4.76667 -0.90245,5.72188 -1.19166,0.45719 -6.29166,2.79477 -11.33333,5.19464 -10.05741,4.78739 -10.62435,5.45747 -7.11552,8.40995 1.54452,1.29963 2.79534,1.72593 5.06406,1.72593 4.86476,0 10.27198,-1.88794 12.67336,-4.42493 3.89012,-4.10982 5.50198,-2.14875 2.91579,3.54751 -2.68869,5.92203 -11.46578,8.76338 -21.15342,6.84784 z m 4.01835,-20.97551 c 3.53689,-1.6528 6.43071,-3.3928 6.43071,-3.86666 0,-1.55056 -1.55332,-2.46158 -4.19708,-2.46158 -4.08765,0 -7.20715,2.78844 -8.76339,7.83333 -0.25449,0.825 -0.33632,1.5 -0.18183,1.5 0.15448,0 3.17469,-1.35229 6.71159,-3.00509 z m 23.76405,19.16227 c -3.54569,-1.17419 -4.40735,-4.44237 -1.33334,-5.05718 l 2,-0.4 0.006,-6.51666 c 0.003,-3.58417 0.19688,-8.1078 0.43044,-10.05251 l 0.42464,-3.53585 -3.5058,0.46506 c -3.46968,0.46027 -3.50079,0.44862 -3.02048,-1.13082 1.25457,-4.12547 4.96057,-5.91912 12.24316,-5.9255 3.97076,-0.003 4.22105,0.0856 3.88197,1.38228 -0.28822,1.10218 -0.1335,1.28913 0.75558,0.91297 2.85654,-1.20856 7.9525,-1.10125 10.96403,0.2309 3.28554,1.45335 4.90052,3.36944 5.5416,6.57483 0.37414,1.87071 0.20426,2.11587 -2.10418,3.0366 -2.42156,0.96584 -2.56066,0.94426 -3.89731,-0.60475 -1.53779,-1.78212 -5.31902,-2.88897 -8.07167,-2.36277 -3.12856,0.59806 -4.52666,7.08793 -3.22419,14.96634 l 0.40892,2.47345 5.08375,0.19322 c 4.96323,0.18863 5.08864,0.23561 5.29036,1.98171 0.13849,1.19871 -0.19127,1.99406 -1,2.41189 -1.30932,0.67645 -19.23817,1.49828 -20.87328,0.95679 z M 347.04968,210.94906 c 0.25288,-1.00759 0.57889,-1.95107 0.72446,-2.09663 0.41382,-0.41383 17.93177,-5.25683 18.1934,-5.02974 0.12821,0.11128 -0.10879,1.2383 -0.52667,2.50448 -0.75404,2.28474 -0.82242,2.31783 -9.04895,4.378 -4.55904,1.14172 -8.62956,2.07585 -9.0456,2.07585 -0.49217,0 -0.59581,-0.64001 -0.29664,-1.83196 z"
         id="path1691-7"
         sodipodi:nodetypes="csscsssssscsssssscccssscccccsscccccccccsssssssscssssssssssscssscccsssssssssssscccsscccsssssssssscccssssscsssssssssssssccsssssssssssscsscssssssssssssssssssssssssssssssssssssssssssssssssssssssssssssssssssssssssssssssssccscsscsssssssscssssssssssss" />
    </g>
  </g>
</svg>
